<svg fill="none" height="30" viewBox="0 0 724 30" width="724" xmlns="http://www.w3.org/2000/svg" xmlns:xlink="http://www.w3.org/1999/xlink"><clipPath id="a"><path d="m313.239 0h118.558v30h-118.558z"/></clipPath><clipPath id="b"><path d="m631.821 0h91.9118v30h-91.9118z"/></clipPath><clipPath id="c"><path d="m481.797 0h100.024v30h-100.024z"/></clipPath><clipPath id="d"><path d="m0 0h87.7021v30h-87.7021z"/></clipPath><g fill="#d2d1da"><path clip-rule="evenodd" d="m186.583 21.6855-1.715 7.9702h-3.943l6.515-28.884966h4.671l6.128 28.884966h-3.986l-1.671-7.9702zm5.528-3.2143-1.329-6.9009c-.386-1.9715-.771-4.54156-1.071-6.59947h-.172c-.299 2.10005-.729 4.75655-1.114 6.59947l-1.371 6.9009zm21.179-18.4712v24.2992c0 1.5864.085 3.9008.17 5.3572h-3.47l-.258-2.5279h-.128c-.686 1.4565-2.272 2.8715-4.371 2.8715-3.857 0-6.214-4.2008-6.214-10.671 0-7.3716 3.128-10.84308 6.428-10.84308 1.671 0 3 .77216 3.728 2.35718h.086v-10.8431zm-4.03 16.7568c0-.385 0-.8564-.043-1.2864-.214-1.8851-1.285-3.5137-2.742-3.5137-2.529 0-3.386 3.5137-3.386 7.3716 0 4.2858 1.115 7.2852 3.258 7.2852.9 0 2.099-.4714 2.785-2.9565.085-.3429.128-.8579.128-1.3279zm13.626 13.2425c-4.157 0-7.158-3.5572-7.158-10.7131 0-7.5866 3.557-10.80099 7.371-10.80099 4.115 0 7.071 3.68579 7.071 10.71449 0 8.2717-4.071 10.7996-7.242 10.7996zm.127-3.1708c2.485 0 3.043-4.4144 3.043-7.5852 0-3.1293-.557-7.5859-3.128-7.5859-2.657 0-3.171 4.4566-3.171 7.5859 0 3.4708.6 7.5852 3.214 7.5852zm9.586-26.8285h4.028v11.1853h.085c1.072-1.88508 2.529-2.70009 4.372-2.70009 3.556 0 5.786 4.02869 5.786 10.41449 0 7.4566-3.043 11.0996-6.472 11.0996-2.057 0-3.214-1.115-4.115-2.9579h-.17l-.215 2.6143h-3.471c.086-1.4136.172-3.7708.172-5.3573zm4.028 22.2841c0 .4729.042.9443.171 1.2865.642 2.5293 1.886 3.0429 2.699 3.0429 2.4 0 3.3-3.1708 3.3-7.4566 0-3.9858-.942-7.2002-3.342-7.2002-1.329 0-2.401 1.5858-2.701 3.0858-.085.4286-.128.9865-.128 1.4143v5.8273zm16.187-2.2279c.043 5.3573 2.357 6.6852 4.8 6.6852 1.457 0 2.7-.3422 3.6-.7715l.6 2.9144c-1.243.6428-3.129.9864-4.972.9864-5.228 0-7.971-3.9429-7.971-10.3717 0-6.8144 3.128-11.01451 7.457-11.01451 4.328 0 6.343 4.15721 6.343 9.38661 0 1.0279-.044 1.6715-.086 2.228zm6.042-2.8708c.043-3.6858-1.242-5.6566-2.827-5.6566-2.101 0-3.044 3.043-3.172 5.6566z" fill-rule="evenodd"/><path clip-rule="evenodd" d="m158.222.8479h12.034v28.8078zm-8.477 0h-12.043v28.8078zm4.239 10.6167 7.667 18.1911h-5.024l-2.293-5.7937h-5.612z" fill-rule="evenodd"/><path clip-rule="evenodd" d="m262.329 8.43165c.121.00056.24.02502.351.07198s.212.11548.297.20162c.084.08613.151.18817.196.30022.045.11206.067.23191.066.35263 0 .52287-.404.9307-.915.9307-.506 0-.918-.40711-.918-.9307-.001-.12118.022-.24131.068-.3535.046-.11218.114-.21423.199-.30028.085-.08606.187-.15444.299-.20123.111-.04679.231-.07107.352-.07144zm-.005.14358c-.407 0-.741.35072-.741.78287 0 .44073.334.7865.746.7865.411.0042.74-.34577.74-.78221s-.329-.78716-.74-.78716zm-.172 1.32289h-.165v-1.03431c.087-.01215.17-.02501.293-.02501.157 0 .259.03358.321.07858s.095.115.095.21429c0 .13572-.091.21857-.202.25143v.00786c.09.01643.153.09929.173.25143.025.16072.049.22215.066.25573h-.173c-.025-.03358-.049-.12787-.07-.26359-.025-.13214-.091-.18143-.223-.18143h-.115zm0-.57288h.119c.136 0 .252-.04928.252-.17714 0-.09072-.066-.18144-.252-.18144-.053 0-.091.00429-.119.00858zm-90.31-8.47734c.121.000556.24.025016.352.071975.111.046958.212.115485.296.201615.085.08614.152.18818.197.30023s.067.2319.065.35263c0 .52287-.403.93074-.914.93074-.506 0-.919-.40716-.919-.93074 0-.12119.023-.24131.069-.3535s.113-.21423.199-.30029c.085-.08606.186-.154437.298-.201225s.232-.071061.353-.071435zm-.004.143573c-.408 0-.741.350727-.741.782877 0 .44072.333.78644.745.78644.412.00429.742-.34571.742-.78215s-.33-.787167-.742-.787167zm-.173 1.322897h-.165v-1.03432c.097-.01606.195-.02418.293-.02428.156 0 .259.03214.321.07786.062.045.095.11571.095.21428 0 .13572-.091.21858-.202.25144v.00786c.09.01642.152.09929.173.25215.024.16072.049.22215.066.25572h-.173c-.025-.03357-.05-.12786-.07-.26358-.025-.13215-.091-.18143-.223-.18143h-.115zm0-.57288h.119c.136 0 .252-.04928.252-.17715 0-.09071-.066-.18143-.252-.18143-.053 0-.09.00429-.119.00858z" fill-rule="evenodd"/><g clip-path="url(#a)"><path clip-rule="evenodd" d="m351.168 23.6215 1.48-3.4381c1.598 1.195 3.727 1.8163 5.828 1.8163 1.551 0 2.532-.5976 2.532-1.5034-.023-2.5324-9.29-.5501-9.361-6.9-.024-3.2248 2.841-5.70981 6.9-5.70981 2.414 0 4.823.59754 6.544 1.95858l-1.384 3.50933c-1.575-1.0054-3.533-1.7215-5.397-1.7215-1.266 0-2.101.5976-2.101 1.3611.024 2.485 9.361 1.1239 9.456 7.1894 0 3.2959-2.793 5.6149-6.805 5.6149-2.94-.0048-5.639-.6971-7.692-2.1768zm56.818-4.6806c-.74 1.2899-2.125 2.172-3.728 2.172-2.366 0-4.272-1.9112-4.272-4.2729s1.911-4.2728 4.272-4.2728c1.599 0 2.988.882 3.728 2.172l4.083-2.2669c-1.527-2.72207-4.467-4.58581-7.811-4.58581-4.946 0-8.958 4.01201-8.958 8.95831 0 4.9462 4.012 8.9582 8.958 8.9582 3.367 0 6.284-1.84 7.811-4.5858zm-40.267-18.485639h5.112v25.006339h-5.112zm46.356 0v25.006339h5.112v-7.5024l6.066 7.5024h6.544l-7.716-8.9109 7.142-8.31328h-6.26l-5.781 6.90008v-14.682239z" fill-rule="evenodd"/><path d="m388.021 18.9883c-.74 1.2188-2.267 2.1246-3.989 2.1246-2.366 0-4.273-1.9112-4.273-4.2729s1.912-4.2728 4.273-4.2728c1.722 0 3.249.9532 3.989 2.1957zm0-10.74614v2.02974c-.835-1.40849-2.912-2.39016-5.089-2.39016-4.491 0-8.024 3.96456-8.024 8.93456s3.533 8.982 8.024 8.982c2.172 0 4.249-.9769 5.089-2.3902v2.0298h5.112v-17.19574z"/><g clip-rule="evenodd" fill-rule="evenodd"><path d="m319.57 18.9646c0 1.7452-1.409 3.1536-3.154 3.1536s-3.154-1.4132-3.154-3.1536c0-1.7405 1.409-3.1537 3.154-3.1537h3.154zm1.574 0c0-1.7452 1.409-3.1537 3.154-3.1537s3.154 1.4085 3.154 3.1537v7.8818c0 1.7451-1.409 3.1536-3.154 3.1536s-3.154-1.4085-3.154-3.1536z"/><path d="m324.298 6.3073c-1.745 0-3.154-1.40847-3.154-3.15365s1.409-3.15365 3.154-3.15365 3.154 1.40847 3.154 3.15365v3.15365zm0 1.59817c1.745 0 3.154 1.40847 3.154 3.15363 0 1.7452-1.409 3.1537-3.154 3.1537h-7.906c-1.745 0-3.153-1.4132-3.153-3.1537 0-1.74042 1.408-3.15363 3.153-3.15363z"/><path d="m336.932 11.0591c0-1.74516 1.408-3.15363 3.153-3.15363s3.154 1.40847 3.154 3.15363c0 1.7452-1.409 3.1537-3.154 3.1537h-3.153zm-1.575 0c0 1.7452-1.408 3.1537-3.154 3.1537-1.745 0-3.153-1.4085-3.153-3.1537v-7.90545c0-1.74518 1.408-3.15365 3.153-3.15365 1.746 0 3.154 1.40847 3.154 3.15365z"/><path d="m332.203 23.6927c1.746 0 3.154 1.4085 3.154 3.1537 0 1.7451-1.408 3.1536-3.154 3.1536-1.745 0-3.153-1.4085-3.153-3.1536v-3.1537zm0-1.5745c-1.745 0-3.153-1.4084-3.153-3.1536s1.408-3.1537 3.153-3.1537h7.906c1.745 0 3.154 1.4085 3.154 3.1537s-1.409 3.1536-3.154 3.1536z"/></g></g><g clip-path="url(#b)"><path d="m643.141.00332642h.817c2.837.06168568 5.629 1.20287358 7.634 3.22307358-.741.75565-1.496 1.48046-2.221 2.23611-1.126-1.01781-2.483-1.80431-3.963-2.08189-2.19-.46264-4.55-.04627-6.385 1.20287-2.005 1.31082-3.362 3.53151-3.655 5.90641-.324 2.3441.339 4.8115 1.866 6.6312 1.465 1.7735 3.701 2.8838 6.015 2.9609 2.159.1234 4.41-.5397 5.983-2.051 1.234-1.0641 1.804-2.6834 1.989-4.2563-2.56 0-5.119.0154-7.679 0v-3.1769h10.779c.555 3.4082-.247 7.2481-2.837 9.6847-1.728 1.7272-4.118 2.745-6.555 2.9455-2.359.2313-4.796-.2159-6.893-1.3571-2.514-1.3417-4.518-3.6086-5.505-6.2765-.926-2.452-.941-5.2279-.077-7.6953.786-2.25153 2.297-4.2409 4.24-5.62882 1.866-1.372511 4.133-2.128161 6.447-2.26695358z"/><path d="m704.98.804565h3.301v22.021835c-1.095 0-2.206.0154-3.301-.0154.016-7.3252 0-14.66583 0-22.006435z"/><path d="m661.662 8.43819c2.035-.38553 4.241.04627 5.922 1.26456 1.526 1.07945 2.59 2.77585 2.914 4.62645.417 2.1435-.108 4.4876-1.496 6.184-1.495 1.8968-3.947 2.9146-6.338 2.7604-2.19-.1234-4.318-1.2183-5.613-3.0072-1.465-1.9739-1.82-4.6881-1.018-7.0013.802-2.4829 3.069-4.37969 5.629-4.82691zm.462 2.93011c-.832.2159-1.603.6939-2.159 1.3725-1.495 1.7889-1.403 4.7035.247 6.369.941.9561 2.36 1.4034 3.67 1.1412 1.219-.2159 2.283-1.0332 2.869-2.1127 1.018-1.8352.725-4.3643-.833-5.7985-1.002-.9253-2.467-1.3108-3.794-.9715z"/><path d="m678.008 8.43818c2.329-.44722 4.874.20048 6.616 1.83512 2.838 2.5446 3.146 7.3098.725 10.2399-1.465 1.8505-3.84 2.8684-6.184 2.7604-2.236-.0617-4.441-1.172-5.768-3.0072-1.495-2.0202-1.819-4.796-.971-7.1555.848-2.4058 3.069-4.24092 5.582-4.67272zm.463 2.93012c-.833.2159-1.604.6939-2.159 1.357-1.48 1.7581-1.419 4.6265.17 6.3074.94 1.0024 2.406 1.4959 3.763 1.2183 1.202-.2313 2.282-1.0332 2.868-2.1127 1.002-1.8506.709-4.3797-.864-5.8139-1.002-.9253-2.467-1.2954-3.778-.9561z"/><path d="m691.872 9.33262c1.774-1.11035 4.133-1.41878 6.046-.46265.601.26217 1.095.70939 1.573 1.15663.015-.4164 0-.8482.015-1.28 1.033.01542 2.066 0 3.115.01542v13.60168c-.015 2.0511-.54 4.2255-2.02 5.7214-1.619 1.6501-4.102 2.159-6.338 1.8197-2.391-.3547-4.472-2.0973-5.398-4.3026.926-.4472 1.897-.8019 2.853-1.2183.54 1.2646 1.635 2.3441 3.007 2.5908 1.373.2468 2.961-.0925 3.856-1.2337.956-1.172.956-2.7758.91-4.21-.71.6939-1.527 1.3108-2.514 1.5421-2.144.6015-4.503-.1388-6.153-1.5884-1.666-1.4496-2.653-3.6857-2.56-5.9064.046-2.5137 1.465-4.9349 3.608-6.24568zm3.193 1.97398c-.941.1542-1.82.6785-2.422 1.4033-1.449 1.7272-1.449 4.4876.016 6.184.833 1.0024 2.174 1.5576 3.47 1.4188 1.218-.1234 2.344-.8945 2.945-1.9585 1.018-1.8044.848-4.2564-.524-5.8293-.848-.9716-2.205-1.4497-3.485-1.2183z"/><path d="m712.244 10.1191c1.851-1.72716 4.704-2.31318 7.078-1.40331 2.252.84818 3.686 2.99181 4.411 5.19701-3.346 1.3879-6.678 2.7605-10.024 4.1484.463.879 1.172 1.6809 2.128 2.0048 1.342.478 2.946.3084 4.071-.586.448-.3393.802-.7865 1.142-1.2183.848.5706 1.696 1.1257 2.544 1.6963-1.203 1.8043-3.223 3.0689-5.397 3.2694-2.406.293-4.966-.6323-6.524-2.5137-2.56-2.9609-2.313-7.9266.571-10.5946zm1.65 2.853c-.524.7557-.74 1.6809-.725 2.5908 2.236-.9253 4.472-1.8506 6.709-2.7913-.371-.8636-1.265-1.3879-2.175-1.5267-1.465-.2622-2.992.5243-3.809 1.7272z"/></g></g><g clip-path="url(#c)"><path d="m496.797.00001526c-8.284 0-15 6.71567474-15 14.99968474 0 8.285 6.716 15.0003 15 15.0003s15-6.7153 15-15.0003c0-8.28347-6.715-14.99896882-15-14.99896882zm6.879 21.63388474c-.27.4419-.845.5804-1.286.3111-3.522-2.1528-7.956-2.6391-13.177-1.4463-.503.1153-1.005-.2001-1.119-.7031-.115-.5031.199-1.0046.703-1.1193 5.714-1.3063 10.615-.744 14.569 1.6719.44.2705.58.8455.31 1.2861zm1.836-4.0837c-.339.5504-1.059.7231-1.609.3851-4.031-2.4779-10.178-3.1956-14.947-1.748-.618.1868-1.271-.1617-1.459-.7792-.186-.6185.162-1.2705.78-1.4585 5.447-1.6529 12.219-.8523 16.85 1.993.549.3386.723 1.0586.385 1.6078zm.157-4.253c-4.835-2.8714-12.81-3.1354-17.426-1.7346-.741.2248-1.525-.1936-1.749-.9348-.225-.74153.193-1.52482.935-1.75015 5.298-1.60848 14.106-1.29771 19.672 2.00645.667.3957.886 1.2567.491 1.9225-.394.6667-1.258.8865-1.922.4906zm16.938.5503c-2.59-.6176-3.051-1.0511-3.051-1.9619 0-.8605.81-1.4396 2.015-1.4396 1.168 0 2.326.4398 3.54 1.345.037.0274.083.0383.128.0312.045-.0068.085-.0317.112-.0692l1.264-1.78255c.052-.07344.038-.17463-.032-.2307-1.445-1.15943-3.072-1.72312-4.974-1.72312-2.796 0-4.749 1.67816-4.749 4.07927 0 2.5748 1.685 3.4865 4.596 4.1903 2.479.5708 2.897 1.0491 2.897 1.904 0 .9474-.846 1.5363-2.207 1.5363-1.512 0-2.745-.5092-4.124-1.7038-.035-.0295-.081-.043-.125-.0405-.045.0038-.087.0249-.116.0599l-1.418 1.6874c-.06.0701-.052.1747.017.2352 1.605 1.4328 3.578 2.1896 5.709 2.1896 3.013 0 4.96-1.6465 4.96-4.1948.005-2.1512-1.282-3.3423-4.437-4.1097zm11.259-2.5543c-1.306 0-2.377.5145-3.261 1.5686v-1.1865c0-.0937-.076-.17-.169-.17h-2.319c-.094 0-.17.0763-.17.17v13.1835c0 .0936.076.1699.17.1699h2.319c.093 0 .169-.0763.169-.1699v-4.1615c.884.9916 1.956 1.4761 3.261 1.4761 2.427 0 4.884-1.8682 4.884-5.4394.004-3.5722-2.454-5.4409-4.881-5.4409zm2.187 5.4408c0 1.8186-1.12 3.0876-2.724 3.0876-1.586 0-2.782-1.3267-2.782-3.0876 0-1.7608 1.196-3.0877 2.782-3.0877 1.578-.0002 2.725 1.2981 2.725 3.0875zm8.994-5.4408c-3.126 0-5.574 2.4067-5.574 5.4796 0 3.0395 2.432 5.4209 5.536 5.4209 3.136 0 5.592-2.3986 5.592-5.4597 0-3.0506-2.439-5.4404-5.554-5.4404zm0 8.5465c-1.663 0-2.916-1.3357-2.916-3.1066 0-1.7785 1.21-3.0691 2.878-3.0691 1.673 0 2.934 1.3357 2.934 3.1079 0 1.7781-1.218 3.0678-2.896 3.0678zm12.228-8.3344h-2.552v-2.60902c0-.0935-.075-.1698-.169-.1698h-2.319c-.093 0-.17.0763-.17.1698v2.60902h-1.115c-.093 0-.168.0763-.168.17v1.9931c0 .0935.075.1699.168.1699h1.115v5.157c0 2.0841 1.038 3.1407 3.083 3.1407.832 0 1.522-.1718 2.173-.5406.053-.0295.085-.0865.085-.147v-1.898c0-.0586-.03-.1139-.08-.1445-.051-.0317-.114-.0333-.165-.0077-.447.2248-.879.3285-1.362.3285-.744 0-1.076-.3378-1.076-1.095v-4.7925h2.552c.094 0 .169-.0763.169-.1699v-1.9929c.004-.0937-.071-.17-.166-.17zm8.892.0102v-.3204c0-.9427.361-1.36311 1.172-1.36311.483 0 .872.09601 1.307.24111.053.0168.109.0084.153-.0237.044-.032.07-.08343.07-.13788v-1.95418c0-.0747-.048-.14079-.12-.16283-.46-.13667-1.048-.27692-1.928-.27692-2.142 0-3.274 1.20619-3.274 3.48691v.4908h-1.114c-.094 0-.17.0763-.17.1698v2.0032c0 .0935.076.17.17.17h1.114v7.9545c0 .0937.076.17.169.17h2.319c.094 0 .17-.0763.17-.17v-7.9539h2.165l3.317 7.9525c-.377.8356-.747 1.0018-1.252 1.0018-.409 0-.839-.122-1.279-.3627-.041-.0228-.09-.0266-.135-.0128-.044.0156-.082.0486-.1.0916l-.786 1.7243c-.038.0815-.006.1772.073.2195.82.4444 1.561.634 2.476.634 1.713 0 2.659-.7976 3.494-2.9434l4.023-10.396c.02-.0523.014-.1115-.018-.1578-.032-.0461-.083-.0738-.14-.0738h-2.414c-.072 0-.137.046-.16.1139l-2.474 7.0641-2.708-7.0688c-.025-.0657-.088-.1092-.159-.1092h-3.962zm-5.155-.0102h-2.319c-.094 0-.17.0763-.17.17v10.1175c0 .0937.076.17.17.17h2.319c.093 0 .17-.0763.17-.17v-10.1168c0-.0223-.005-.0445-.013-.0651-.009-.0207-.021-.0395-.037-.0553s-.035-.0283-.055-.0368c-.021-.0085-.043-.0128-.066-.0128zm-1.147-4.60672c-.918 0-1.664.74369-1.664 1.66239 0 .91924.746 1.66383 1.664 1.66383.919 0 1.663-.74459 1.663-1.66383 0-.91852-.745-1.66239-1.662-1.66239zm20.316 7.85972c-.918 0-1.632-.7371-1.632-1.6321 0-.8951.723-1.6406 1.641-1.6406.917 0 1.631.7369 1.631 1.6312 0 .8951-.723 1.6415-1.64 1.6415zm.009-3.1104c-.836 0-1.469.6645-1.469 1.4783 0 .8133.628 1.4689 1.46 1.4689.836 0 1.469-.664 1.469-1.4783 0-.8133-.628-1.4689-1.459-1.4689zm.362 1.6368.461.6462h-.389l-.415-.5928h-.358v.5928h-.326v-1.713h.764c.398 0 .66.2036.66.5464.002.2809-.161.4525-.396.5204zm-.276-.7729h-.425v.5418h.425c.212 0 .339-.1037.339-.2712 0-.1762-.128-.2706-.339-.2706z" fill="#d2d1da"/></g><g clip-path="url(#d)" fill="#d2d1da"><path d="m20.3993 15.9409c-.0362-3.7961 3.1013-5.62 3.2424-5.7069-1.7659-2.5802-4.509-2.93485-5.4861-2.97466-2.3341-.23884-4.5561 1.37516-5.7431 1.37516-1.1869 0-3.01443-1.34259-4.9505-1.30278-2.54765.03619-4.89626 1.4801-6.20989 3.75998-2.64174 4.5814-.673102 11.3848 1.90712 15.1086 1.26296 1.8202 2.76115 3.8721 4.73703 3.7961 1.9035-.076 2.62004-1.2304 4.91434-1.2304s2.9421 1.2304 4.9506 1.1942c2.0446-.0398 3.3401-1.8601 4.5922-3.6876 1.4403-2.117 2.0374-4.1616 2.0736-4.2702-.047-.0181-3.9843-1.5271-4.0277-6.0615z"/><path d="m16.6249 4.79132c1.0495-1.27021 1.7552-3.03257 1.5634-4.79132-1.5091.0615199-3.3366 1.00603-4.4186 2.27624-.9699 1.12183-1.8203 2.91676-1.5887 4.63932 1.6755.13028 3.3981-.85766 4.4439-2.12424zm17.0085 14.88058-1.737 5.2654h-2.2329l5.6852-16.73344h2.6056l5.7068 16.73344h-2.3088l-1.7877-5.2654zm5.4861-1.69-1.6357-4.8166c-.3727-1.0929-.6188-2.0845-.8685-3.0543h-.0471c-.2496.9915-.5211 2.0084-.8431 3.0289l-1.6357 4.8384zm6.2352-1.1399c0-1.538-.047-2.7829-.1013-3.9228h1.9614l.1013 2.0627h.0471c.8938-1.4656 2.3088-2.3341 4.2702-2.3341 2.9059 0 5.0881 2.4571 5.0881 6.1085 0 4.3209-2.6309 6.4524-5.4608 6.4524-1.5887 0-2.9783-.6948-3.6985-1.8854h-.047v6.5283h-2.1605zm2.1569 3.2026c0 .3257.047.6189.1013.8939.3981 1.5126 1.7117 2.5585 3.2786 2.5585 2.3088 0 3.6514-1.8854 3.6514-4.643 0-2.4101-1.2666-4.4656-3.5754-4.4656-1.4873 0-2.8769 1.0676-3.304 2.7069-.0759.2714-.1483.5971-.1483.8938zm11.468-3.2026c0-1.538-.0471-2.7829-.1013-3.9228h1.9614l.1013 2.0627h.047c.8939-1.4656 2.3088-2.3341 4.2702-2.3341 2.906 0 5.0881 2.4571 5.0881 6.1085 0 4.3209-2.6309 6.4524-5.4608 6.4524-1.5887 0-2.9783-.6948-3.6984-1.8854h-.0471v6.5283h-2.1604zm2.1604 3.2026c0 .3257.0471.6189.1014.8939.398 1.5126 1.7117 2.5585 3.2786 2.5585 2.3088 0 3.6514-1.8854 3.6514-4.643 0-2.4101-1.2666-4.4656-3.5754-4.4656-1.4873 0-2.877 1.0676-3.304 2.7069-.076.2714-.1484.5971-.1484.8938zm11.4681-12.73459h2.1857v17.62369h-2.1857zm6.579 12.01449c.047 2.9529 1.936 4.1725 4.1182 4.1725 1.5633 0 2.5078-.2714 3.3257-.6188l.3727 1.5633c-.7672.3474-2.0844.7455-3.9951.7455-3.6985 0-5.9096-2.4319-5.9096-6.0579 0-3.6261 2.1351-6.4813 5.6345-6.4813 3.9228 0 4.965 3.4487 4.965 5.6598 0 .4487-.047.7925-.076 1.0169zm6.4053-1.5633c.0253-1.3897-.5718-3.5501-3.029-3.5501-2.2111 0-3.1773 2.0374-3.351 3.5501z"/></g></svg>