<svg width="724" height="30" viewBox="0 0 724 30" fill="none" xmlns="http://www.w3.org/2000/svg">
<path fill-rule="evenodd" clip-rule="evenodd" d="M186.583 21.6855L184.868 29.6557H180.925L187.44 0.770734H192.111L198.239 29.6557H194.253L192.582 21.6855H186.583ZM192.111 18.4712L190.782 11.5703C190.396 9.5988 190.011 7.02874 189.711 4.97083H189.539C189.24 7.07088 188.81 9.72738 188.425 11.5703L187.054 18.4712H192.111ZM213.29 0V24.2992C213.29 25.8856 213.375 28.2 213.46 29.6564H209.99L209.732 27.1285H209.604C208.918 28.585 207.332 30 205.233 30C201.376 30 199.019 25.7992 199.019 19.329C199.019 11.9574 202.147 8.48592 205.447 8.48592C207.118 8.48592 208.447 9.25808 209.175 10.8431H209.261V0H213.29ZM209.26 16.7568C209.26 16.3718 209.26 15.9004 209.217 15.4704C209.003 13.5853 207.932 11.9567 206.475 11.9567C203.946 11.9567 203.089 15.4704 203.089 19.3283C203.089 23.6141 204.204 26.6135 206.347 26.6135C207.247 26.6135 208.446 26.1421 209.132 23.657C209.217 23.3141 209.26 22.7991 209.26 22.3291V16.7568ZM222.886 29.9993C218.729 29.9993 215.728 26.4421 215.728 19.2862C215.728 11.6996 219.285 8.48521 223.099 8.48521C227.214 8.48521 230.17 12.171 230.17 19.1997C230.17 27.4714 226.099 29.9993 222.928 29.9993H222.886ZM223.013 26.8285C225.498 26.8285 226.056 22.4141 226.056 19.2433C226.056 16.114 225.499 11.6574 222.928 11.6574C220.271 11.6574 219.757 16.114 219.757 19.2433C219.757 22.7141 220.357 26.8285 222.971 26.8285H223.013ZM232.599 0H236.627V11.1853H236.712C237.784 9.30022 239.241 8.48521 241.084 8.48521C244.64 8.48521 246.87 12.5139 246.87 18.8997C246.87 26.3563 243.827 29.9993 240.398 29.9993C238.341 29.9993 237.184 28.8843 236.283 27.0414H236.113L235.898 29.6557H232.427C232.513 28.2421 232.599 25.8849 232.599 24.2984V0ZM236.627 22.2841C236.627 22.757 236.669 23.2284 236.798 23.5706C237.44 26.0999 238.684 26.6135 239.497 26.6135C241.897 26.6135 242.797 23.4427 242.797 19.1569C242.797 15.1711 241.855 11.9567 239.455 11.9567C238.126 11.9567 237.054 13.5425 236.754 15.0425C236.669 15.4711 236.626 16.029 236.626 16.4568V22.2841H236.627ZM252.814 20.0562C252.857 25.4135 255.171 26.7414 257.614 26.7414C259.071 26.7414 260.314 26.3992 261.214 25.9699L261.814 28.8843C260.571 29.5271 258.685 29.8707 256.842 29.8707C251.614 29.8707 248.871 25.9278 248.871 19.499C248.871 12.6846 251.999 8.48449 256.328 8.48449C260.656 8.48449 262.671 12.6417 262.671 17.8711C262.671 18.899 262.627 19.5426 262.585 20.0991L252.814 20.0562ZM258.856 17.1854C258.899 13.4996 257.614 11.5288 256.029 11.5288C253.928 11.5288 252.985 14.5718 252.857 17.1854H258.856Z" fill="#D2D1DA"/>
<path fill-rule="evenodd" clip-rule="evenodd" d="M158.222 0.8479H170.256V29.6557L158.222 0.8479ZM149.745 0.8479H137.702V29.6557L149.745 0.8479ZM153.984 11.4646L161.651 29.6557H156.627L154.334 23.862H148.722L153.984 11.4646Z" fill="#D2D1DA"/>
<path fill-rule="evenodd" clip-rule="evenodd" d="M262.329 8.43165C262.45 8.43221 262.569 8.45667 262.68 8.50363C262.791 8.55059 262.892 8.61911 262.977 8.70525C263.061 8.79138 263.128 8.89342 263.173 9.00547C263.218 9.11753 263.24 9.23738 263.239 9.3581C263.239 9.88097 262.835 10.2888 262.324 10.2888C261.818 10.2888 261.406 9.88169 261.406 9.3581C261.405 9.23692 261.428 9.11679 261.474 9.0046C261.52 8.89242 261.588 8.79037 261.673 8.70432C261.758 8.61826 261.86 8.54988 261.972 8.50309C262.083 8.4563 262.203 8.43202 262.324 8.43165H262.329ZM262.324 8.57523C261.917 8.57523 261.583 8.92595 261.583 9.3581C261.583 9.79883 261.917 10.1446 262.329 10.1446C262.74 10.1488 263.069 9.79883 263.069 9.36239C263.069 8.92595 262.74 8.57523 262.329 8.57523H262.324ZM262.152 9.89812H261.987V8.86381C262.074 8.85166 262.157 8.8388 262.28 8.8388C262.437 8.8388 262.539 8.87238 262.601 8.91738C262.663 8.96238 262.696 9.03238 262.696 9.13167C262.696 9.26739 262.605 9.35024 262.494 9.3831V9.39096C262.584 9.40739 262.647 9.49025 262.667 9.64239C262.692 9.80311 262.716 9.86454 262.733 9.89812H262.56C262.535 9.86454 262.511 9.77025 262.49 9.63453C262.465 9.50239 262.399 9.4531 262.267 9.4531H262.152V9.89812H262.152ZM262.152 9.32524H262.271C262.407 9.32524 262.523 9.27596 262.523 9.1481C262.523 9.05738 262.457 8.96666 262.271 8.96666C262.218 8.96666 262.18 8.97095 262.152 8.97524V9.32524ZM171.842 0.8479C171.963 0.848456 172.082 0.872916 172.194 0.919875C172.305 0.966833 172.406 1.03536 172.49 1.12149C172.575 1.20763 172.642 1.30967 172.687 1.42172C172.732 1.53377 172.754 1.65362 172.752 1.77435C172.752 2.29722 172.349 2.70509 171.838 2.70509C171.332 2.70509 170.919 2.29793 170.919 1.77435C170.919 1.65316 170.942 1.53304 170.988 1.42085C171.034 1.30866 171.101 1.20662 171.187 1.12056C171.272 1.0345 171.373 0.966123 171.485 0.919335C171.597 0.872547 171.717 0.848274 171.838 0.8479H171.842ZM171.838 0.991473C171.43 0.991473 171.097 1.3422 171.097 1.77435C171.097 2.21507 171.43 2.56079 171.842 2.56079C172.254 2.56508 172.584 2.21508 172.584 1.77864C172.584 1.3422 172.254 0.991473 171.842 0.991473H171.838ZM171.665 2.31437H171.5V1.28005C171.597 1.26399 171.695 1.25587 171.793 1.25577C171.949 1.25577 172.052 1.28791 172.114 1.33363C172.176 1.37863 172.209 1.44934 172.209 1.54791C172.209 1.68363 172.118 1.76649 172.007 1.79935V1.80721C172.097 1.82363 172.159 1.9065 172.18 2.05936C172.204 2.22008 172.229 2.28151 172.246 2.31508H172.073C172.048 2.28151 172.023 2.18722 172.003 2.0515C171.978 1.91935 171.912 1.87007 171.78 1.87007H171.665V2.31437ZM171.665 1.74149H171.784C171.92 1.74149 172.036 1.69221 172.036 1.56434C172.036 1.47363 171.97 1.38291 171.784 1.38291C171.731 1.38291 171.694 1.3872 171.665 1.39149V1.74149Z" fill="#D2D1DA"/>
<g clip-path="url(#clip0_101_162)">
<path fill-rule="evenodd" clip-rule="evenodd" d="M351.168 23.6215L352.648 20.1834C354.246 21.3784 356.375 21.9997 358.476 21.9997C360.027 21.9997 361.008 21.4021 361.008 20.4963C360.985 17.9639 351.718 19.9462 351.647 13.5963C351.623 10.3715 354.488 7.88649 358.547 7.88649C360.961 7.88649 363.37 8.48403 365.091 9.84507L363.707 13.3544C362.132 12.349 360.174 11.6329 358.31 11.6329C357.044 11.6329 356.209 12.2305 356.209 12.994C356.233 15.479 365.57 14.1179 365.665 20.1834C365.665 23.4793 362.872 25.7983 358.86 25.7983C355.92 25.7935 353.221 25.1012 351.168 23.6215ZM407.986 18.9409C407.246 20.2308 405.861 21.1129 404.258 21.1129C401.892 21.1129 399.986 19.2017 399.986 16.84C399.986 14.4783 401.897 12.5672 404.258 12.5672C405.857 12.5672 407.246 13.4492 407.986 14.7392L412.069 12.4723C410.542 9.75023 407.602 7.88649 404.258 7.88649C399.312 7.88649 395.3 11.8985 395.3 16.8448C395.3 21.791 399.312 25.803 404.258 25.803C407.625 25.803 410.542 23.963 412.069 21.2172L407.986 18.9409ZM367.719 0.455261H372.831V25.4616H367.719V0.455261ZM414.075 0.455261V25.4616H419.187V17.9592L425.253 25.4616H431.797L424.081 16.5507L431.223 8.23742H424.963L419.182 15.1375V0.455261H414.075Z" fill="#D2D1DA"/>
<path d="M388.021 18.9883C387.281 20.2071 385.754 21.1129 384.032 21.1129C381.666 21.1129 379.759 19.2017 379.759 16.84C379.759 14.4783 381.671 12.5672 384.032 12.5672C385.754 12.5672 387.281 13.5204 388.021 14.7629V18.9883ZM388.021 8.24216V10.2719C387.186 8.86341 385.109 7.88174 382.932 7.88174C378.441 7.88174 374.908 11.8463 374.908 16.8163C374.908 21.7863 378.441 25.7983 382.932 25.7983C385.104 25.7983 387.181 24.8214 388.021 23.4081V25.4379H393.133V8.24216H388.021Z" fill="#D2D1DA"/>
<path fill-rule="evenodd" clip-rule="evenodd" d="M319.57 18.9646C319.57 20.7098 318.161 22.1182 316.416 22.1182C314.671 22.1182 313.262 20.705 313.262 18.9646C313.262 17.2241 314.671 15.8109 316.416 15.8109H319.57V18.9646ZM321.144 18.9646C321.144 17.2194 322.553 15.8109 324.298 15.8109C326.043 15.8109 327.452 17.2194 327.452 18.9646V26.8464C327.452 28.5915 326.043 30 324.298 30C322.553 30 321.144 28.5915 321.144 26.8464V18.9646Z" fill="#D2D1DA"/>
<path fill-rule="evenodd" clip-rule="evenodd" d="M324.298 6.3073C322.553 6.3073 321.144 4.89883 321.144 3.15365C321.144 1.40847 322.553 0 324.298 0C326.043 0 327.452 1.40847 327.452 3.15365V6.3073H324.298ZM324.298 7.90547C326.043 7.90547 327.452 9.31394 327.452 11.0591C327.452 12.8043 326.043 14.2128 324.298 14.2128H316.392C314.647 14.2128 313.239 12.7996 313.239 11.0591C313.239 9.31868 314.647 7.90547 316.392 7.90547H324.298Z" fill="#D2D1DA"/>
<path fill-rule="evenodd" clip-rule="evenodd" d="M336.932 11.0591C336.932 9.31394 338.34 7.90547 340.085 7.90547C341.83 7.90547 343.239 9.31394 343.239 11.0591C343.239 12.8043 341.83 14.2128 340.085 14.2128H336.932V11.0591ZM335.357 11.0591C335.357 12.8043 333.949 14.2128 332.203 14.2128C330.458 14.2128 329.05 12.8043 329.05 11.0591V3.15365C329.05 1.40847 330.458 0 332.203 0C333.949 0 335.357 1.40847 335.357 3.15365V11.0591Z" fill="#D2D1DA"/>
<path fill-rule="evenodd" clip-rule="evenodd" d="M332.203 23.6927C333.949 23.6927 335.357 25.1012 335.357 26.8464C335.357 28.5915 333.949 30 332.203 30C330.458 30 329.05 28.5915 329.05 26.8464V23.6927H332.203ZM332.203 22.1182C330.458 22.1182 329.05 20.7098 329.05 18.9646C329.05 17.2194 330.458 15.8109 332.203 15.8109H340.109C341.854 15.8109 343.263 17.2194 343.263 18.9646C343.263 20.7098 341.854 22.1182 340.109 22.1182H332.203Z" fill="#D2D1DA"/>
</g>
<g clip-path="url(#clip1_101_162)">
<path d="M643.141 0.00332642H643.958C646.795 0.0650121 649.587 1.2062 651.592 3.2264C650.851 3.98205 650.096 4.70686 649.371 5.46251C648.245 4.4447 646.888 3.6582 645.408 3.38062C643.218 2.91798 640.858 3.33435 639.023 4.58349C637.018 5.89431 635.661 8.115 635.368 10.4899C635.044 12.834 635.707 15.3014 637.234 17.1211C638.699 18.8946 640.935 20.0049 643.249 20.082C645.408 20.2054 647.659 19.5423 649.232 18.031C650.466 16.9669 651.036 15.3476 651.221 13.7747C648.661 13.7747 646.102 13.7901 643.542 13.7747V10.5978H654.321C654.876 14.006 654.074 17.8459 651.484 20.2825C649.756 22.0097 647.366 23.0275 644.929 23.228C642.57 23.4593 640.133 23.0121 638.036 21.8709C635.522 20.5292 633.518 18.2623 632.531 15.5944C631.605 13.1424 631.59 10.3665 632.454 7.8991C633.24 5.64757 634.751 3.6582 636.694 2.27028C638.56 0.897769 640.827 0.142119 643.141 0.00332642Z" fill="#D2D1DA"/>
<path d="M704.98 0.804565H708.281V22.8264C707.186 22.8264 706.075 22.8418 704.98 22.811C704.996 15.4858 704.98 8.14517 704.98 0.804565Z" fill="#D2D1DA"/>
<path d="M661.662 8.43819C663.697 8.05266 665.903 8.48446 667.584 9.70275C669.11 10.7822 670.174 12.4786 670.498 14.3292C670.915 16.4727 670.39 18.8168 669.002 20.5132C667.507 22.41 665.055 23.4278 662.664 23.2736C660.474 23.1502 658.346 22.0553 657.051 20.2664C655.586 18.2925 655.231 15.5783 656.033 13.2651C656.835 10.7822 659.102 8.88541 661.662 8.43819ZM662.124 11.3683C661.292 11.5842 660.521 12.0622 659.965 12.7408C658.47 14.5297 658.562 17.4443 660.212 19.1098C661.153 20.0659 662.572 20.5132 663.882 20.251C665.101 20.0351 666.165 19.2178 666.751 18.1383C667.769 16.3031 667.476 13.774 665.918 12.3398C664.916 11.4145 663.451 11.029 662.124 11.3683Z" fill="#D2D1DA"/>
<path d="M678.008 8.43818C680.337 7.99096 682.882 8.63866 684.624 10.2733C687.462 12.8179 687.77 17.5831 685.349 20.5132C683.884 22.3637 681.509 23.3816 679.165 23.2736C676.929 23.2119 674.724 22.1016 673.397 20.2664C671.902 18.2462 671.578 15.4704 672.426 13.1109C673.274 10.7051 675.495 8.86998 678.008 8.43818ZM678.471 11.3683C677.638 11.5842 676.867 12.0622 676.312 12.7253C674.832 14.4834 674.893 17.3518 676.482 19.0327C677.422 20.0351 678.888 20.5286 680.245 20.251C681.447 20.0197 682.527 19.2178 683.113 18.1383C684.115 16.2877 683.822 13.7586 682.249 12.3244C681.247 11.3991 679.782 11.029 678.471 11.3683Z" fill="#D2D1DA"/>
<path d="M691.872 9.33262C693.646 8.22227 696.005 7.91384 697.918 8.86997C698.519 9.13214 699.013 9.57936 699.491 10.0266C699.506 9.6102 699.491 9.1784 699.506 8.7466C700.539 8.76202 701.572 8.7466 702.621 8.76202V22.3637C702.606 24.4148 702.081 26.5892 700.601 28.0851C698.982 29.7352 696.499 30.2441 694.263 29.9048C691.872 29.5501 689.791 27.8075 688.865 25.6022C689.791 25.155 690.762 24.8003 691.718 24.3839C692.258 25.6485 693.353 26.728 694.725 26.9747C696.098 27.2215 697.686 26.8822 698.581 25.741C699.537 24.569 699.537 22.9652 699.491 21.531C698.781 22.2249 697.964 22.8418 696.977 23.0731C694.833 23.6746 692.474 22.9343 690.824 21.4847C689.158 20.0351 688.171 17.799 688.264 15.5783C688.31 13.0646 689.729 10.6434 691.872 9.33262ZM695.065 11.3066C694.124 11.4608 693.245 11.9851 692.643 12.7099C691.194 14.4371 691.194 17.1975 692.659 18.8939C693.492 19.8963 694.833 20.4515 696.129 20.3127C697.347 20.1893 698.473 19.4182 699.074 18.3542C700.092 16.5498 699.922 14.0978 698.55 12.5249C697.702 11.5533 696.345 11.0752 695.065 11.3066Z" fill="#D2D1DA"/>
<path d="M712.244 10.1191C714.095 8.39194 716.948 7.80592 719.322 8.71579C721.574 9.56397 723.008 11.7076 723.733 13.9128C720.387 15.3007 717.055 16.6733 713.709 18.0612C714.172 18.9402 714.881 19.7421 715.837 20.066C717.179 20.544 718.783 20.3744 719.908 19.48C720.356 19.1407 720.71 18.6935 721.05 18.2617C721.898 18.8323 722.746 19.3874 723.594 19.958C722.391 21.7623 720.371 23.0269 718.197 23.2274C715.791 23.5204 713.231 22.5951 711.673 20.7137C709.113 17.7528 709.36 12.7871 712.244 10.1191ZM713.894 12.9721C713.37 13.7278 713.154 14.653 713.169 15.5629C715.405 14.6376 717.641 13.7123 719.878 12.7716C719.507 11.908 718.613 11.3837 717.703 11.2449C716.238 10.9827 714.711 11.7692 713.894 12.9721Z" fill="#D2D1DA"/>
</g>
<g clip-path="url(#clip2_101_162)">
<path d="M496.797 1.52588e-05C488.513 1.52588e-05 481.797 6.71569 481.797 14.9997C481.797 23.2847 488.513 30 496.797 30C505.081 30 511.797 23.2847 511.797 14.9997C511.797 6.71623 505.082 0.000731184 496.797 0.000731184L496.797 1.52588e-05ZM503.676 21.6339C503.406 22.0758 502.831 22.2143 502.39 21.945C498.868 19.7922 494.434 19.3059 489.213 20.4987C488.71 20.614 488.208 20.2986 488.094 19.7956C487.979 19.2925 488.293 18.791 488.797 18.6763C494.511 17.37 499.412 17.9323 503.366 20.3482C503.806 20.6187 503.946 21.1937 503.676 21.6343L503.676 21.6339ZM505.512 17.5502C505.173 18.1006 504.453 18.2733 503.903 17.9353C499.872 15.4574 493.725 14.7397 488.956 16.1873C488.338 16.3741 487.685 16.0256 487.497 15.4081C487.311 14.7896 487.659 14.1376 488.277 13.9496C493.724 12.2967 500.496 13.0973 505.127 15.9426C505.676 16.2812 505.85 17.0012 505.512 17.5504L505.512 17.5502ZM505.669 13.2972C500.834 10.4258 492.859 10.1618 488.243 11.5626C487.502 11.7874 486.718 11.369 486.494 10.6278C486.269 9.88627 486.687 9.10298 487.429 8.87765C492.727 7.26917 501.535 7.57994 507.101 10.8841C507.768 11.2798 507.987 12.1408 507.592 12.8066C507.198 13.4733 506.334 13.6931 505.67 13.2972H505.669ZM522.607 13.8475C520.017 13.2299 519.556 12.7964 519.556 11.8856C519.556 11.0251 520.366 10.446 521.571 10.446C522.739 10.446 523.897 10.8858 525.111 11.791C525.148 11.8184 525.194 11.8293 525.239 11.8222C525.284 11.8154 525.324 11.7905 525.351 11.753L526.615 9.97045C526.667 9.89701 526.653 9.79582 526.583 9.73975C525.138 8.58032 523.511 8.01663 521.609 8.01663C518.813 8.01663 516.86 9.69479 516.86 12.0959C516.86 14.6707 518.545 15.5824 521.456 16.2862C523.935 16.857 524.353 17.3353 524.353 18.1902C524.353 19.1376 523.507 19.7265 522.146 19.7265C520.634 19.7265 519.401 19.2173 518.022 18.0227C517.987 17.9932 517.941 17.9797 517.897 17.9822C517.852 17.986 517.81 18.0071 517.781 18.0421L516.363 19.7295C516.303 19.7996 516.311 19.9042 516.38 19.9647C517.985 21.3975 519.958 22.1543 522.089 22.1543C525.102 22.1543 527.049 20.5078 527.049 17.9595C527.054 15.8083 525.767 14.6172 522.612 13.8498L522.607 13.8475ZM533.866 11.2932C532.56 11.2932 531.489 11.8077 530.605 12.8618V11.6753C530.605 11.5816 530.529 11.5053 530.436 11.5053H528.117C528.023 11.5053 527.947 11.5816 527.947 11.6753V24.8588C527.947 24.9524 528.023 25.0287 528.117 25.0287H530.436C530.529 25.0287 530.605 24.9524 530.605 24.8588V20.6973C531.489 21.6889 532.561 22.1734 533.866 22.1734C536.293 22.1734 538.75 20.3052 538.75 16.734C538.754 13.1618 536.296 11.2931 533.869 11.2931L533.866 11.2932ZM536.053 16.734C536.053 18.5526 534.933 19.8216 533.329 19.8216C531.743 19.8216 530.547 18.4949 530.547 16.734C530.547 14.9732 531.743 13.6463 533.329 13.6463C534.907 13.6461 536.054 14.9444 536.054 16.7338L536.053 16.734ZM545.047 11.2932C541.921 11.2932 539.473 13.6999 539.473 16.7728C539.473 19.8123 541.905 22.1937 545.009 22.1937C548.145 22.1937 550.601 19.7951 550.601 16.734C550.601 13.6834 548.162 11.2936 545.047 11.2936L545.047 11.2932ZM545.047 19.8397C543.384 19.8397 542.131 18.504 542.131 16.7331C542.131 14.9546 543.341 13.664 545.009 13.664C546.682 13.664 547.943 14.9997 547.943 16.7719C547.943 18.55 546.725 19.8397 545.047 19.8397H545.047ZM557.275 11.5053H554.723V8.89628C554.723 8.80278 554.648 8.72648 554.554 8.72648H552.235C552.142 8.72648 552.065 8.80278 552.065 8.89628V11.5053H550.95C550.857 11.5053 550.782 11.5816 550.782 11.6753V13.6684C550.782 13.7619 550.857 13.8383 550.95 13.8383H552.065V18.9953C552.065 21.0794 553.103 22.136 555.148 22.136C555.98 22.136 556.67 21.9642 557.321 21.5954C557.374 21.5659 557.406 21.5089 557.406 21.4484V19.5504C557.406 19.4918 557.376 19.4365 557.326 19.4059C557.275 19.3742 557.212 19.3726 557.161 19.3982C556.714 19.623 556.282 19.7267 555.799 19.7267C555.055 19.7267 554.723 19.3889 554.723 18.6317V13.8392H557.275C557.369 13.8392 557.444 13.7629 557.444 13.6693V11.6764C557.448 11.5827 557.373 11.5064 557.278 11.5064L557.275 11.5053ZM566.167 11.5155V11.1951C566.167 10.2524 566.528 9.83199 567.339 9.83199C567.822 9.83199 568.211 9.928 568.646 10.0731C568.699 10.0899 568.755 10.0815 568.799 10.0494C568.843 10.0174 568.869 9.96597 568.869 9.91152V7.95734C568.869 7.88264 568.821 7.81655 568.749 7.79451C568.289 7.65784 567.701 7.51759 566.821 7.51759C564.679 7.51759 563.547 8.72378 563.547 11.0045V11.4953H562.433C562.339 11.4953 562.263 11.5716 562.263 11.6651V13.6683C562.263 13.7618 562.339 13.8383 562.433 13.8383H563.547V21.7928C563.547 21.8865 563.623 21.9628 563.716 21.9628H566.035C566.129 21.9628 566.205 21.8865 566.205 21.7928V13.8389H568.37L571.687 21.7914C571.31 22.627 570.94 22.7932 570.435 22.7932C570.026 22.7932 569.596 22.6712 569.156 22.4305C569.115 22.4077 569.066 22.4039 569.021 22.4177C568.977 22.4333 568.939 22.4663 568.921 22.5093L568.135 24.2336C568.097 24.3151 568.129 24.4108 568.208 24.4531C569.028 24.8975 569.769 25.0871 570.684 25.0871C572.397 25.0871 573.343 24.2895 574.178 22.1437L578.201 11.7477C578.221 11.6954 578.215 11.6362 578.183 11.5899C578.151 11.5438 578.1 11.5161 578.043 11.5161H575.629C575.557 11.5161 575.492 11.5621 575.469 11.63L572.995 18.6941L570.287 11.6253C570.262 11.5596 570.199 11.5161 570.128 11.5161H566.166L566.167 11.5155ZM561.012 11.5053H558.693C558.599 11.5053 558.523 11.5816 558.523 11.6753V21.7928C558.523 21.8865 558.599 21.9628 558.693 21.9628H561.012C561.105 21.9628 561.182 21.8865 561.182 21.7928V11.676C561.182 11.6537 561.177 11.6315 561.169 11.6109C561.16 11.5902 561.148 11.5714 561.132 11.5556C561.116 11.5398 561.097 11.5273 561.077 11.5188C561.056 11.5103 561.034 11.506 561.011 11.506L561.012 11.5053ZM559.865 6.89858C558.947 6.89858 558.201 7.64227 558.201 8.56097C558.201 9.48021 558.947 10.2248 559.865 10.2248C560.784 10.2248 561.528 9.48021 561.528 8.56097C561.528 7.64245 560.783 6.89858 559.866 6.89858H559.865ZM580.181 14.7583C579.263 14.7583 578.549 14.0212 578.549 13.1262C578.549 12.2311 579.272 11.4856 580.19 11.4856C581.107 11.4856 581.821 12.2225 581.821 13.1168C581.821 14.0119 581.098 14.7583 580.181 14.7583H580.181ZM580.19 11.6479C579.354 11.6479 578.721 12.3124 578.721 13.1262C578.721 13.9395 579.349 14.5951 580.181 14.5951C581.017 14.5951 581.65 13.9311 581.65 13.1168C581.65 12.3035 581.022 11.6479 580.191 11.6479H580.19ZM580.552 13.2847L581.013 13.9309H580.624L580.209 13.3381H579.851V13.9309H579.525V12.2179H580.289C580.687 12.2179 580.949 12.4215 580.949 12.7643C580.951 13.0452 580.788 13.2168 580.553 13.2847H580.552V13.2847ZM580.276 12.5118H579.851V13.0536H580.276C580.488 13.0536 580.615 12.9499 580.615 12.7824C580.615 12.6062 580.487 12.5118 580.276 12.5118H580.276V12.5118Z" fill="#D2D1DA"/>
</g>
<g clip-path="url(#clip3_101_162)">
<path d="M20.3993 15.9409C20.3631 12.1448 23.5006 10.3209 23.6417 10.234C21.8758 7.6538 19.1327 7.29915 18.1556 7.25934C15.8215 7.0205 13.5995 8.6345 12.4125 8.6345C11.2256 8.6345 9.39807 7.29191 7.462 7.33172C4.91435 7.36791 2.56574 8.81182 1.25211 11.0917C-1.38963 15.6731 0.579008 22.4765 3.15923 26.2003C4.42219 28.0205 5.92038 30.0724 7.89626 29.9964C9.79976 29.9204 10.5163 28.766 12.8106 28.766C15.1049 28.766 15.7527 29.9964 17.7612 29.9602C19.8058 29.9204 21.1013 28.1001 22.3534 26.2726C23.7937 24.1556 24.3908 22.111 24.427 22.0024C24.38 21.9843 20.4427 20.4753 20.3993 15.9409Z" fill="#D2D1DA"/>
<path d="M16.6249 4.79132C17.6744 3.52111 18.3801 1.75875 18.1883 0C16.6792 0.0615199 14.8517 1.00603 13.7697 2.27624C12.7998 3.39807 11.9494 5.193 12.181 6.91556C13.8565 7.04584 15.5791 6.0579 16.6249 4.79132ZM33.6334 19.6719L31.8964 24.9373H29.6635L35.3487 8.20386H37.9543L43.6611 24.9373H41.3523L39.5646 19.6719H33.6334ZM39.1195 17.9819L37.4838 13.1653C37.1111 12.0724 36.865 11.0808 36.6153 10.111H36.5682C36.3186 11.1025 36.0471 12.1194 35.7251 13.1399L34.0894 17.9783L39.1195 17.9819ZM45.3547 16.842C45.3547 15.304 45.3077 14.0591 45.2534 12.9192H47.2148L47.3161 14.9819H47.3632C48.257 13.5163 49.672 12.6478 51.6334 12.6478C54.5393 12.6478 56.7215 15.1049 56.7215 18.7563C56.7215 23.0772 54.0906 25.2087 51.2607 25.2087C49.672 25.2087 48.2824 24.5139 47.5622 23.3233H47.5152V29.8516H45.3547V16.842ZM47.5116 20.0446C47.5116 20.3703 47.5586 20.6635 47.6129 20.9385C48.011 22.4511 49.3246 23.497 50.8915 23.497C53.2003 23.497 54.5429 21.6116 54.5429 18.854C54.5429 16.4439 53.2763 14.3884 50.9675 14.3884C49.4802 14.3884 48.0906 15.456 47.6635 17.0953C47.5876 17.3667 47.5152 17.6924 47.5152 17.9891L47.5116 20.0446ZM58.9796 16.842C58.9796 15.304 58.9325 14.0591 58.8783 12.9192H60.8397L60.941 14.9819H60.988C61.8819 13.5163 63.2968 12.6478 65.2582 12.6478C68.1642 12.6478 70.3463 15.1049 70.3463 18.7563C70.3463 23.0772 67.7154 25.2087 64.8855 25.2087C63.2968 25.2087 61.9072 24.5139 61.1871 23.3233H61.14V29.8516H58.9796V16.842ZM61.14 20.0446C61.14 20.3703 61.1871 20.6635 61.2414 20.9385C61.6394 22.4511 62.9531 23.497 64.52 23.497C66.8288 23.497 68.1714 21.6116 68.1714 18.854C68.1714 16.4439 66.9048 14.3884 64.596 14.3884C63.1087 14.3884 61.719 15.456 61.292 17.0953C61.216 17.3667 61.1436 17.6924 61.1436 17.9891L61.14 20.0446ZM72.6081 7.31001H74.7938V24.9337H72.6081V7.31001ZM79.1871 19.3245C79.2341 22.2774 81.1231 23.497 83.3053 23.497C84.8686 23.497 85.8131 23.2256 86.631 22.8782L87.0037 24.4415C86.2365 24.7889 84.9193 25.187 83.0086 25.187C79.3101 25.187 77.099 22.7551 77.099 19.1291C77.099 15.503 79.2341 12.6478 82.7335 12.6478C86.6563 12.6478 87.6985 16.0965 87.6985 18.3076C87.6985 18.7563 87.6515 19.1001 87.6225 19.3245H79.1871ZM85.5924 17.7612C85.6177 16.3715 85.0206 14.2111 82.5634 14.2111C80.3523 14.2111 79.3861 16.2485 79.2124 17.7612H85.5924Z" fill="#D2D1DA"/>
</g>
<defs>
<clipPath id="clip0_101_162">
<rect width="118.558" height="30" fill="white" transform="translate(313.239)"/>
</clipPath>
<clipPath id="clip1_101_162">
<rect width="91.9118" height="30" fill="white" transform="translate(631.821)"/>
</clipPath>
<clipPath id="clip2_101_162">
<rect width="100.024" height="30" fill="white" transform="translate(481.797)"/>
</clipPath>
<clipPath id="clip3_101_162">
<rect width="87.7021" height="30" fill="white"/>
</clipPath>
</defs>
</svg>
