<svg fill="none" height="43" viewBox="0 0 119 43" width="119" xmlns="http://www.w3.org/2000/svg"><path d="m3.12 37.37c-.1-.36-.24-.81-.42-1.35-.18-.52-.38-1.05-.6-1.59-.2-.54-.42-1.01-.66-1.41l.09-.18c.26-.08.51-.15.75-.21 1.6-1.34 3.11-2.72 4.53-4.14 1.44-1.44 2.76-2.84 3.96-4.2 1.22-1.36 2.28-2.6 3.18-3.72.92-1.14 1.65-2.08 2.19-2.82.56-.74.9-1.2 1.02-1.38.08-.14.15-.25.21-.33.06-.1.1-.17.12-.21-.04 0-.12 0-.24 0-.1-.02-.27-.03-.51-.03-.42 0-1.13.03-2.13.09s-2.18.15-3.54.27c-1.36.1-2.79.23-4.29.39s-2.96.35-4.38.57l-.63-5.22c1.8-.26 3.64-.47 5.52-.63 1.9-.18 3.72-.31 5.46-.39 1.76-.1 3.33-.15 4.71-.15.66 0 1.36.03 2.1.09s1.42.19 2.04.39c.64.2 1.16.53 1.56.99.4.44.6 1.05.6 1.83 0 1.18-.56 2.57-1.68 4.17-1.16 1.7-2.42 3.36-3.78 4.98-1.34 1.6-2.68 3.1-4.02 4.5-1.32 1.4-2.54 2.64-3.66 3.72.72-.04 1.45-.06 2.19-.06.76-.02 1.53-.03 2.31-.03 1.78 0 3.47.06 5.07.18 1.6.1 3 .26 4.2.48l-.9 5.16c-1.36-.22-2.86-.38-4.5-.48-1.62-.08-3.27-.12-4.95-.12-1.94 0-3.86.07-5.76.21s-3.62.35-5.16.63zm30.7613.09c-1.28 0-2.34-.23-3.18-.69-.82-.44-1.48-1.05-1.98-1.83-.48-.78-.84-1.65-1.08-2.61-.22-.98-.37-1.99-.45-3.03-.06-1.06-.09-2.08-.09-3.06 0-1.12.03-2.26.09-3.42.08-1.16.16-2.43.24-3.81l5.49-.33c-.06.42-.15 1.05-.27 1.89s-.23 1.8-.33 2.88-.15 2.21-.15 3.39c0 1.94.17 3.38.51 4.32.34.92.85 1.38 1.53 1.38 1.36 0 2.36-.99 3-2.97s.96-5.11.96-9.39v-1.38l2.55-.06 3.09-.06c-.28 1.88-.49 3.61-.63 5.19s-.23 2.91-.27 3.99c-.04 1.06-.06 1.77-.06 2.13 0 .92.08 1.58.24 1.98.16.38.44.57.84.57.2 0 .42-.04.66-.12s.52-.22.84-.42l-.21 5.16c-.76.12-1.42.18-1.98.18-.96 0-1.75-.18-2.37-.54-.6-.36-1.08-.84-1.44-1.44-.62.66-1.39 1.17-2.31 1.53-.9.38-1.98.57-3.24.57zm19.8735-.09c-1.1 0-2.01-.24-2.73-.72-.7-.46-1.26-1.1-1.68-1.92-.4-.82-.7-1.76-.9-2.82-.18-1.06-.3-2.19-.36-3.39-.04-1.22-.06-2.44-.06-3.66 0-1.06.03-2.22.09-3.48.06-1.28.13-2.57.21-3.87.1-1.32.2-2.56.3-3.72.12-1.16.23-2.17.33-3.03l5.43.06c-.16 1.02-.31 2.18-.45 3.48-.14 1.28-.26 2.58-.36 3.9-.08 1.32-.15 2.54-.21 3.66-.04 1.12-.06 2.01-.06 2.67 0 1.82.03 3.25.09 4.29.08 1.04.19 1.78.33 2.22.16.42.37.63.63.63.34 0 .71-.21 1.11-.63.4-.44.79-.93 1.17-1.47l2.55 5.07c-.62.68-1.36 1.3-2.22 1.86-.86.58-1.93.87-3.21.87zm13.8575 0c-1.1 0-2.01-.24-2.73-.72-.7-.46-1.26-1.1-1.68-1.92-.4-.82-.7-1.76-.9-2.82-.18-1.06-.3-2.19-.36-3.39-.04-1.22-.06-2.44-.06-3.66 0-1.06.03-2.22.09-3.48.06-1.28.13-2.57.21-3.87.1-1.32.2-2.56.3-3.72.12-1.16.23-2.17.33-3.03l5.43.06c-.16 1.02-.31 2.18-.45 3.48-.14 1.28-.26 2.58-.36 3.9-.08 1.32-.15 2.54-.21 3.66-.04 1.12-.06 2.01-.06 2.67 0 1.82.03 3.25.09 4.29.08 1.04.19 1.78.33 2.22.16.42.37.63.63.63.34 0 .71-.21 1.11-.63.4-.44.79-.93 1.17-1.47l2.55 5.07c-.62.68-1.36 1.3-2.22 1.86-.86.58-1.93.87-3.21.87zm8.2174-.18c-.08-.96-.15-2.19-.21-3.69-.04-1.5-.06-3.13-.06-4.89 0-1.56.01-3.17.03-4.83.04-1.66.09-3.29.15-4.89.08-1.62.16-3.13.24-4.53.1-1.42.21-2.66.33-3.72l5.22.36c-.28 2.04-.5 4.11-.66 6.21-.14 2.08-.23 4.2-.27 6.36 1.12-.78 2.42-1.6 3.9-2.46 1.5-.88 3.3-1.87 5.4-2.97l2.82 4.71c-2.16.68-4.07 1.46-5.73 2.34-1.66.86-3.02 1.73-4.08 2.61-.2.14-.33.24-.39.3s-.09.1-.09.12c0 .12.33.34.99.66.88.46 1.79.91 2.73 1.35s1.99.89 3.15 1.35c1.16.44 2.49.91 3.99 1.41l-2.07 4.44c-1.82-.54-3.64-1.22-5.46-2.04s-3.47-1.65-4.95-2.49c.02.68.05 1.37.09 2.07.06.7.11 1.4.15 2.1zm18.6258-21.57c0-.18-.01-.36-.03-.54 0-.2 0-.42 0-.66 0-.64.02-1.32.06-2.04s.08-1.33.12-1.83l5.34.09c-.06.68-.13 1.45-.21 2.31-.06.86-.1 1.75-.12 2.67zm-.12 21.48c-.06-1.24-.1-2.56-.12-3.96-.02-1.42-.03-2.84-.03-4.26 0-1.86.02-3.67.06-5.43s.09-3.36.15-4.8l5.16-.03c-.08.92-.13 2.06-.15 3.42-.02 1.34-.03 2.75-.03 4.23 0 1.46.01 2.9.03 4.32s.04 2.71.06 3.87c.04 1.14.07 2.02.09 2.64zm17.1205.27c-1.2 0-2.15-.26-2.85-.78-.7-.5-1.21-1.2-1.53-2.1s-.53-1.93-.63-3.09c-.08-1.16-.12-2.38-.12-3.66 0-1.32.05-2.69.15-4.11-1.34.18-2.63.41-3.87.69l-.93-4.71c1.66-.44 3.43-.76 5.31-.96.14-1.02.29-2.09.45-3.21.16-1.14.34-2.34.54-3.6l5.16.45c-.24 1.04-.45 2.08-.63 3.12-.18 1.02-.34 2.01-.48 2.97 1.12 0 2.17.03 3.15.09 1 .04 1.92.12 2.76.24l-.6 4.71c-.7-.08-1.43-.13-2.19-.15-.74-.04-1.49-.06-2.25-.06-.46 0-.92.01-1.38.03-.12 1.46-.2 2.71-.24 3.75-.02 1.04-.03 1.78-.03 2.22 0 1.1.06 1.89.18 2.37.14.48.36.72.66.72.34 0 .72-.11 1.14-.33.42-.24.83-.56 1.23-.96.42-.4.77-.83 1.05-1.29l2.31 4.83c-1.98 1.88-4.1 2.82-6.36 2.82z" fill="#160442"/><circle cx="97" cy="9" fill="#642dfb" r="7"/></svg>