<svg width="475" height="451" viewBox="0 0 475 451" fill="none" xmlns="http://www.w3.org/2000/svg">
<path d="M331.887 233.315H317.421V354.769H331.887V233.315Z" fill="url(#paint0_linear_120_147)"/>
<path d="M459.945 197.213H445.479V318.666H459.945V197.213Z" fill="url(#paint1_linear_120_147)"/>
<path d="M90.5527 166.645H76.0864V288.098H90.5527V166.645Z" fill="url(#paint2_linear_120_147)"/>
<path d="M61.9346 168.846C61.9346 169.978 63.507 171.11 66.7147 171.928L313.27 237.97C319.685 239.668 330.063 239.668 336.479 237.97L470.197 202.119C473.405 201.238 474.977 200.169 474.977 199.037V204.949C474.977 206.081 473.405 207.213 470.197 208.031L336.479 243.882C330.063 245.58 319.685 245.58 313.27 243.882L66.7147 177.84C63.507 176.96 61.9346 175.828 61.9346 174.758V168.846Z" fill="url(#paint3_linear_120_147)"/>
<path d="M61.9346 168.846C61.9346 167.714 63.507 166.582 66.7147 165.764L200.433 129.913C206.849 128.215 217.227 128.215 223.642 129.913L470.197 195.955C473.405 196.835 474.977 197.967 474.977 199.037C474.977 200.169 473.405 201.301 470.197 202.119L336.479 237.97C330.063 239.668 319.685 239.668 313.27 237.97L66.7147 171.928C63.5699 171.11 61.9346 169.978 61.9346 168.846Z" fill="url(#paint4_linear_120_147)"/>
<path d="M375.977 181.803L300.627 161.613L274.525 168.595L349.875 188.784L375.977 181.803Z" fill="url(#paint5_linear_120_147)"/>
<path d="M325.723 96.0118V164.003C325.723 168.846 322.893 170.985 320.692 171.551L305.659 175.513C303.898 176.016 302.011 176.016 300.25 175.513L267.984 166.896C266.789 166.582 266.789 164.821 267.984 164.506L282.262 160.67C284.463 160.041 286.287 157.085 286.287 154.065V85.4452L325.723 96.0118Z" fill="url(#paint6_linear_120_147)"/>
<path d="M324.402 96.4521V163.563C324.402 166.519 322.641 169.412 320.44 170.041L304.841 174.255C303.08 174.696 301.256 174.696 299.558 174.255L268.047 165.827C266.852 165.513 266.852 163.814 268.047 163.5L282.01 159.789C284.211 159.223 285.972 156.33 285.972 153.311V86.1371L324.402 96.4521Z" fill="url(#paint7_linear_120_147)"/>
<path d="M374.342 164.884C376.921 164.192 378.745 161.236 378.745 157.273V71.7966C378.745 66.5762 375.663 61.4816 371.826 60.4752L239.051 24.8757C238.17 24.6241 237.29 24.6241 236.535 24.8757L238.925 24.2467C239.743 24.058 240.561 24.058 241.441 24.2467L374.216 59.8462C378.053 60.8526 381.135 65.9472 381.135 71.1676V156.581C381.135 160.607 379.311 163.5 376.732 164.192L374.342 164.884Z" fill="url(#paint8_linear_120_147)"/>
<path d="M374.342 164.884C373.525 165.072 372.707 165.072 371.826 164.884L239.051 129.284C235.215 128.278 232.133 123.183 232.133 117.963V32.4862C232.133 28.4608 233.957 25.5675 236.536 24.8757C237.353 24.687 238.171 24.687 239.051 24.8757L371.826 60.4752C375.663 61.4816 378.745 66.5762 378.745 71.7966V157.273C378.808 161.236 376.921 164.192 374.342 164.884Z" fill="url(#paint9_linear_120_147)"/>
<path d="M238.045 29.7187C238.485 29.5929 238.925 29.5929 239.366 29.7187L370.82 64.9409C372.832 65.507 374.531 68.1486 374.531 70.979L374.342 156.015C374.342 158.154 373.398 159.726 372.015 160.041C371.574 160.166 371.134 160.166 370.694 160.041L239.24 124.819C237.227 124.252 235.529 121.611 235.529 118.78L235.717 33.6812C235.717 31.6685 236.661 30.0961 238.045 29.7187Z" fill="url(#paint10_linear_120_147)"/>
<path d="M376.669 206.521L286.727 182.432L255.593 190.797L345.473 214.824L376.669 206.521Z" fill="url(#paint11_linear_120_147)"/>
<path d="M192.193 171.802C192.193 172.054 192.508 172.243 193.2 172.431L292.954 199.162C294.275 199.54 296.413 199.54 297.734 199.162L325.66 191.678C326.289 191.489 326.667 191.3 326.667 191.049V192.747C326.667 192.999 326.352 193.187 325.66 193.376L297.734 200.861C296.413 201.238 294.275 201.238 292.954 200.861L193.2 174.13C192.508 173.941 192.193 173.689 192.193 173.501V171.802Z" fill="url(#paint12_linear_120_147)"/>
<path d="M192.193 171.802C192.193 171.551 192.508 171.362 193.2 171.173L221.126 163.689C222.447 163.311 224.585 163.311 225.906 163.689L325.66 190.42C326.352 190.608 326.667 190.86 326.667 191.049C326.667 191.3 326.352 191.489 325.66 191.678L297.734 199.162C296.413 199.54 294.275 199.54 292.954 199.162L193.2 172.431C192.508 172.243 192.193 171.991 192.193 171.802Z" fill="url(#paint13_linear_120_147)"/>
<path d="M223.076 168.091L220.749 167.462C220.371 167.337 220.371 167.211 220.749 167.085L223.076 166.456C223.453 166.33 224.145 166.33 224.522 166.456L226.85 167.085C227.227 167.211 227.227 167.337 226.85 167.462L224.522 168.091C224.082 168.154 223.453 168.154 223.076 168.091ZM230.749 169.727L233.076 169.098C233.454 168.972 233.454 168.846 233.076 168.72L230.749 168.091C230.372 167.966 229.68 167.966 229.302 168.091L226.975 168.72C226.598 168.846 226.598 168.972 226.975 169.098L229.302 169.727C229.743 169.853 230.372 169.853 230.749 169.727ZM237.039 171.425L239.366 170.796C239.743 170.67 239.743 170.544 239.366 170.419L237.039 169.79C236.661 169.664 235.97 169.664 235.592 169.79L233.265 170.419C232.888 170.544 232.888 170.67 233.265 170.796L235.592 171.425C236.032 171.551 236.661 171.551 237.039 171.425ZM243.328 173.123L245.656 172.494C246.033 172.368 246.033 172.243 245.656 172.117L243.328 171.488C242.951 171.362 242.259 171.362 241.882 171.488L239.555 172.117C239.177 172.243 239.177 172.368 239.555 172.494L241.882 173.123C242.259 173.249 242.951 173.249 243.328 173.123ZM249.618 174.821L251.945 174.192C252.323 174.067 252.323 173.941 251.945 173.815L249.618 173.186C249.241 173.06 248.549 173.06 248.171 173.186L245.844 173.815C245.467 173.941 245.467 174.067 245.844 174.192L248.171 174.821C248.549 174.884 249.178 174.884 249.618 174.821ZM255.845 176.457L258.172 175.828C258.549 175.702 258.549 175.576 258.172 175.45L255.845 174.821C255.467 174.696 254.776 174.696 254.398 174.821L252.071 175.45C251.694 175.576 251.694 175.702 252.071 175.828L254.398 176.457C254.839 176.583 255.467 176.583 255.845 176.457ZM262.135 178.155L264.462 177.526C264.839 177.4 264.839 177.274 264.462 177.149L262.135 176.52C261.757 176.394 261.065 176.394 260.688 176.52L258.361 177.149C257.983 177.274 257.983 177.4 258.361 177.526L260.688 178.155C261.128 178.281 261.757 178.281 262.135 178.155ZM268.424 179.853L270.751 179.224C271.129 179.098 271.129 178.973 270.751 178.847L268.424 178.218C268.047 178.092 267.355 178.092 266.978 178.218L264.65 178.847C264.273 178.973 264.273 179.098 264.65 179.224L266.978 179.853C267.418 179.979 268.047 179.979 268.424 179.853ZM274.714 181.551L277.041 180.922C277.418 180.797 277.418 180.671 277.041 180.545L274.714 179.916C274.337 179.79 273.645 179.79 273.267 179.916L270.94 180.545C270.563 180.671 270.563 180.797 270.94 180.922L273.267 181.551C273.645 181.614 274.337 181.614 274.714 181.551ZM281.004 183.187L283.331 182.558C283.708 182.432 283.708 182.306 283.331 182.18L281.004 181.551C280.626 181.426 279.934 181.426 279.557 181.551L277.23 182.18C276.852 182.306 276.852 182.432 277.23 182.558L279.557 183.187C279.934 183.312 280.563 183.312 281.004 183.187ZM287.293 184.885L289.62 184.256C289.998 184.13 289.998 184.004 289.62 183.879L287.293 183.25C286.916 183.124 286.224 183.124 285.847 183.25L283.519 183.879C283.142 184.004 283.142 184.13 283.519 184.256L285.847 184.885C286.224 185.011 286.853 185.011 287.293 184.885ZM293.52 186.583L295.847 185.954C296.225 185.828 296.225 185.703 295.847 185.577L293.52 184.948C293.143 184.822 292.451 184.822 292.073 184.948L289.746 185.577C289.369 185.703 289.369 185.828 289.746 185.954L292.073 186.583C292.514 186.709 293.143 186.709 293.52 186.583ZM299.81 188.281L302.137 187.652C302.514 187.527 302.514 187.401 302.137 187.275L299.81 186.646C299.432 186.52 298.74 186.52 298.363 186.646L296.036 187.275C295.659 187.401 295.659 187.527 296.036 187.652L298.363 188.281C298.803 188.344 299.432 188.344 299.81 188.281ZM306.099 189.917L308.427 189.288C308.804 189.162 308.804 189.036 308.427 188.91L306.099 188.281C305.722 188.155 305.03 188.155 304.653 188.281L302.326 188.91C301.948 189.036 301.948 189.162 302.326 189.288L304.653 189.917C305.093 190.042 305.722 190.042 306.099 189.917ZM312.389 191.615L314.716 190.986C315.094 190.86 315.094 190.734 314.716 190.608L312.389 189.98C312.012 189.854 311.32 189.854 310.942 189.98L308.615 190.608C308.238 190.734 308.238 190.86 308.615 190.986L310.942 191.615C311.32 191.741 312.012 191.741 312.389 191.615ZM219.365 173.186L222.321 172.368C222.573 172.306 222.573 172.18 222.321 172.117L212.446 169.475C212.195 169.412 211.88 169.412 211.629 169.475L208.672 170.293C208.421 170.356 208.421 170.482 208.672 170.544L218.547 173.186C218.799 173.186 219.113 173.186 219.365 173.186ZM225.277 174.57L227.604 173.941C227.982 173.815 227.982 173.689 227.604 173.563L225.277 172.934C224.9 172.809 224.208 172.809 223.83 172.934L221.503 173.563C221.126 173.689 221.126 173.815 221.503 173.941L223.83 174.57C224.271 174.696 224.9 174.696 225.277 174.57ZM231.567 176.268L233.894 175.639C234.271 175.513 234.271 175.387 233.894 175.262L231.567 174.633C231.189 174.507 230.498 174.507 230.12 174.633L227.793 175.262C227.416 175.387 227.416 175.513 227.793 175.639L230.12 176.268C230.56 176.394 231.189 176.394 231.567 176.268ZM237.856 177.966L240.184 177.337C240.561 177.211 240.561 177.086 240.184 176.96L237.856 176.331C237.479 176.205 236.787 176.205 236.41 176.331L234.083 176.96C233.705 177.086 233.705 177.211 234.083 177.337L236.41 177.966C236.85 178.029 237.479 178.029 237.856 177.966ZM244.146 179.602L246.473 178.973C246.851 178.847 246.851 178.721 246.473 178.595L244.146 177.966C243.769 177.84 243.077 177.84 242.699 177.966L240.372 178.595C239.995 178.721 239.995 178.847 240.372 178.973L242.699 179.602C243.077 179.727 243.769 179.727 244.146 179.602ZM250.436 181.3L252.763 180.671C253.14 180.545 253.14 180.419 252.763 180.293L250.436 179.664C250.058 179.539 249.367 179.539 248.989 179.664L246.662 180.293C246.285 180.419 246.285 180.545 246.662 180.671L248.989 181.3C249.367 181.426 249.996 181.426 250.436 181.3ZM256.725 182.998L259.053 182.369C259.43 182.243 259.43 182.117 259.053 181.992L256.725 181.363C256.348 181.237 255.656 181.237 255.279 181.363L252.952 181.992C252.574 182.117 252.574 182.243 252.952 182.369L255.279 182.998C255.656 183.124 256.285 183.124 256.725 182.998ZM262.952 184.696L265.279 184.067C265.657 183.941 265.657 183.816 265.279 183.69L262.952 183.061C262.575 182.935 261.883 182.935 261.506 183.061L259.178 183.69C258.801 183.816 258.801 183.941 259.178 184.067L261.506 184.696C261.946 184.759 262.575 184.759 262.952 184.696ZM269.242 186.332L271.569 185.703C271.946 185.577 271.946 185.451 271.569 185.325L269.242 184.696C268.865 184.57 268.173 184.57 267.795 184.696L265.468 185.325C265.091 185.451 265.091 185.577 265.468 185.703L267.795 186.332C268.236 186.457 268.865 186.457 269.242 186.332ZM275.532 188.03L277.859 187.401C278.236 187.275 278.236 187.149 277.859 187.023L275.532 186.394C275.154 186.269 274.462 186.269 274.085 186.394L271.758 187.023C271.38 187.149 271.38 187.275 271.758 187.401L274.085 188.03C274.525 188.155 275.154 188.155 275.532 188.03ZM281.821 189.728L284.148 189.099C284.526 188.973 284.526 188.847 284.148 188.722L281.821 188.093C281.444 187.967 280.752 187.967 280.375 188.093L278.047 188.722C277.67 188.847 277.67 188.973 278.047 189.099L280.375 189.728C280.752 189.854 281.444 189.854 281.821 189.728ZM288.111 191.426L290.438 190.797C290.815 190.671 290.815 190.546 290.438 190.42L288.111 189.791C287.734 189.665 287.042 189.665 286.664 189.791L284.337 190.42C283.96 190.546 283.96 190.671 284.337 190.797L286.664 191.426C287.042 191.489 287.671 191.489 288.111 191.426ZM300.313 194.885L303.395 194.068C303.583 194.005 303.583 193.942 303.395 193.879L294.023 191.363C293.834 191.3 293.52 191.3 293.331 191.363L290.249 192.181C290.061 192.244 290.061 192.307 290.249 192.37L299.621 194.885C299.747 194.948 300.124 194.948 300.313 194.885ZM221.755 170.544L224.585 169.79C224.837 169.727 224.837 169.601 224.585 169.538L218.421 167.903C218.17 167.84 217.729 167.84 217.478 167.903L214.648 168.658C214.396 168.72 214.396 168.846 214.648 168.909L220.811 170.544C221.126 170.607 221.503 170.607 221.755 170.544ZM228.296 172.18L230.623 171.551C231.001 171.425 231.001 171.299 230.623 171.173L228.296 170.544C227.919 170.419 227.227 170.419 226.85 170.544L224.522 171.173C224.145 171.299 224.145 171.425 224.522 171.551L226.85 172.18C227.29 172.306 227.919 172.306 228.296 172.18ZM234.586 173.878L236.913 173.249C237.29 173.123 237.29 172.997 236.913 172.872L234.586 172.243C234.208 172.117 233.517 172.117 233.139 172.243L230.812 172.872C230.435 172.997 230.435 173.123 230.812 173.249L233.139 173.878C233.579 173.941 234.208 173.941 234.586 173.878ZM240.875 175.513L243.203 174.884C243.58 174.759 243.58 174.633 243.203 174.507L240.875 173.878C240.498 173.752 239.806 173.752 239.429 173.878L237.102 174.507C236.724 174.633 236.724 174.759 237.102 174.884L239.429 175.513C239.806 175.639 240.498 175.639 240.875 175.513ZM247.165 177.211L249.492 176.583C249.87 176.457 249.87 176.331 249.492 176.205L247.165 175.576C246.788 175.45 246.096 175.45 245.719 175.576L243.391 176.205C243.014 176.331 243.014 176.457 243.391 176.583L245.719 177.211C246.096 177.337 246.725 177.337 247.165 177.211ZM253.455 178.91L255.782 178.281C256.159 178.155 256.159 178.029 255.782 177.903L253.455 177.274C253.077 177.149 252.386 177.149 252.008 177.274L249.681 177.903C249.304 178.029 249.304 178.155 249.681 178.281L252.008 178.91C252.386 179.035 253.015 179.035 253.455 178.91ZM259.682 180.608L262.009 179.979C262.386 179.853 262.386 179.727 262.009 179.602L259.682 178.973C259.304 178.847 258.612 178.847 258.235 178.973L255.908 179.602C255.53 179.727 255.53 179.853 255.908 179.979L258.235 180.608C258.675 180.671 259.304 180.671 259.682 180.608ZM265.971 182.243L268.298 181.614C268.676 181.488 268.676 181.363 268.298 181.237L265.971 180.608C265.594 180.482 264.902 180.482 264.525 180.608L262.197 181.237C261.82 181.363 261.82 181.488 262.197 181.614L264.525 182.243C264.965 182.369 265.594 182.369 265.971 182.243ZM272.261 183.941L274.588 183.312C274.965 183.187 274.965 183.061 274.588 182.935L272.261 182.306C271.884 182.18 271.192 182.18 270.814 182.306L268.487 182.935C268.11 183.061 268.11 183.187 268.487 183.312L270.814 183.941C271.255 184.067 271.884 184.067 272.261 183.941ZM278.551 185.64L280.878 185.011C281.255 184.885 281.255 184.759 280.878 184.633L278.551 184.004C278.173 183.879 277.481 183.879 277.104 184.004L274.777 184.633C274.399 184.759 274.399 184.885 274.777 185.011L277.104 185.64C277.481 185.765 278.173 185.765 278.551 185.64ZM284.84 187.338L287.167 186.709C287.545 186.583 287.545 186.457 287.167 186.332L284.84 185.703C284.463 185.577 283.771 185.577 283.394 185.703L281.066 186.332C280.689 186.457 280.689 186.583 281.066 186.709L283.394 187.338C283.771 187.401 284.4 187.401 284.84 187.338ZM291.13 188.973L293.457 188.344C293.834 188.218 293.834 188.093 293.457 187.967L291.13 187.338C290.753 187.212 290.061 187.212 289.683 187.338L287.356 187.967C286.979 188.093 286.979 188.218 287.356 188.344L289.683 188.973C290.061 189.099 290.69 189.099 291.13 188.973ZM297.357 190.671L299.684 190.042C300.061 189.917 300.061 189.791 299.684 189.665L297.357 189.036C296.979 188.91 296.287 188.91 295.91 189.036L293.583 189.665C293.206 189.791 293.206 189.917 293.583 190.042L295.91 190.671C296.35 190.797 296.979 190.797 297.357 190.671ZM306.351 193.25L309.244 192.495C309.496 192.432 309.496 192.307 309.244 192.244L303.332 190.671C303.08 190.608 302.703 190.608 302.451 190.671L299.558 191.426C299.306 191.489 299.306 191.615 299.558 191.678L305.47 193.25C305.722 193.313 306.099 193.313 306.351 193.25ZM209.93 173.752L212.761 172.997C213.012 172.935 213.012 172.809 212.761 172.746L206.597 171.11C206.345 171.048 205.905 171.048 205.653 171.11L202.823 171.865C202.571 171.928 202.571 172.054 202.823 172.117L208.987 173.752C209.238 173.815 209.679 173.815 209.93 173.752ZM216.472 175.325L218.799 174.696C219.176 174.57 219.176 174.444 218.799 174.318L216.472 173.689C216.094 173.563 215.402 173.563 215.025 173.689L212.698 174.318C212.32 174.444 212.32 174.57 212.698 174.696L215.025 175.325C215.465 175.45 216.094 175.45 216.472 175.325ZM222.761 177.023L225.088 176.394C225.466 176.268 225.466 176.142 225.088 176.016L222.761 175.387C222.384 175.262 221.692 175.262 221.315 175.387L218.987 176.016C218.61 176.142 218.61 176.268 218.987 176.394L221.315 177.023C221.692 177.149 222.384 177.149 222.761 177.023ZM254.084 185.451L256.6 184.759C256.977 184.633 256.977 184.507 256.6 184.445L228.988 177.023C228.611 176.897 228.045 176.897 227.667 177.023L225.151 177.715C224.774 177.84 224.774 177.966 225.151 178.029L252.763 185.451C253.14 185.577 253.706 185.577 254.084 185.451ZM260.436 187.149L262.764 186.52C263.141 186.394 263.141 186.269 262.764 186.143L260.436 185.514C260.059 185.388 259.367 185.388 258.99 185.514L256.663 186.143C256.285 186.269 256.285 186.394 256.663 186.52L258.99 187.149C259.367 187.212 259.996 187.212 260.436 187.149ZM266.726 188.784L269.053 188.156C269.431 188.03 269.431 187.904 269.053 187.778L266.726 187.149C266.349 187.023 265.657 187.023 265.279 187.149L262.952 187.778C262.575 187.904 262.575 188.03 262.952 188.156L265.279 188.784C265.657 188.91 266.286 188.91 266.726 188.784ZM272.953 190.483L275.28 189.854C275.657 189.728 275.657 189.602 275.28 189.476L272.953 188.847C272.575 188.722 271.884 188.722 271.506 188.847L269.179 189.476C268.802 189.602 268.802 189.728 269.179 189.854L271.506 190.483C271.946 190.608 272.575 190.608 272.953 190.483ZM279.242 192.181L281.57 191.552C281.947 191.426 281.947 191.3 281.57 191.175L279.242 190.546C278.865 190.42 278.173 190.42 277.796 190.546L275.469 191.175C275.091 191.3 275.091 191.426 275.469 191.552L277.796 192.181C278.236 192.307 278.865 192.307 279.242 192.181ZM285.532 193.879L287.859 193.25C288.237 193.124 288.237 192.999 287.859 192.873L285.532 192.244C285.155 192.118 284.463 192.118 284.086 192.244L281.758 192.873C281.381 192.999 281.381 193.124 281.758 193.25L284.086 193.879C284.526 193.942 285.155 193.942 285.532 193.879ZM294.526 196.395L297.357 195.64C297.608 195.577 297.608 195.452 297.357 195.389L291.507 193.816C291.256 193.753 290.815 193.753 290.564 193.816L287.734 194.571C287.482 194.634 287.482 194.76 287.734 194.823L293.583 196.395C293.897 196.458 294.275 196.458 294.526 196.395Z" fill="url(#paint14_linear_120_147)"/>
<path d="M339.372 0.0943451C339.812 -0.0314483 340.315 -0.0314483 340.818 0.0943451L417.238 20.5987C419.439 21.1647 421.137 24.058 421.137 27.0141V47.3927C421.137 49.6569 420.131 51.2923 418.621 51.7325C418.181 51.8583 417.678 51.8583 417.175 51.7325L340.818 31.2282C338.617 30.6621 336.919 27.7689 336.919 24.8127V4.43422C336.856 2.16994 337.925 0.534622 339.372 0.0943451Z" fill="url(#paint15_linear_120_147)"/>
<path d="M346.227 8.2709C347.107 8.01932 348.051 8.01932 348.994 8.2709C353.208 9.40305 356.668 15.0009 356.668 20.7245C356.668 25.1272 354.655 28.3978 351.825 29.1526C350.944 29.4042 350.001 29.4042 349.057 29.1526C344.843 28.0205 341.384 22.4227 341.384 16.6991C341.384 12.2963 343.396 9.02566 346.227 8.2709Z" fill="white"/>
<path d="M345.221 13.2397C345.284 13.2397 345.41 13.2397 345.535 13.2397L352.58 15.1266C353.02 15.2524 353.398 15.8185 353.398 16.4475V23.3032C353.398 23.7435 353.209 24.1209 352.894 24.1838C352.831 24.1838 352.706 24.1838 352.58 24.1838L345.535 22.2969C345.095 22.1711 344.718 21.605 344.718 20.976V14.1203C344.718 13.68 344.969 13.3655 345.221 13.2397Z" fill="url(#paint16_linear_120_147)"/>
<path d="M345.221 13.2397C345.284 13.2397 345.41 13.2397 345.535 13.2397L352.58 15.1266C353.02 15.2524 353.398 15.8185 353.398 16.4475V17.7054L349.435 19.9697C349.372 19.9697 349.372 20.0326 349.309 20.0326C349.121 20.0955 348.869 19.9697 348.68 19.781L344.718 15.3782V14.1203C344.718 13.68 344.969 13.3655 345.221 13.2397Z" fill="url(#paint17_linear_120_147)"/>
<path d="M366.983 17.8941C367.109 17.8941 367.235 17.8941 367.361 17.8941L403.841 27.6431C404.407 27.7689 404.847 28.5236 404.847 29.2784C404.847 29.8445 404.596 30.2848 404.218 30.4105C404.093 30.4105 403.967 30.4105 403.841 30.4105L367.361 20.6616C366.795 20.5358 366.354 19.781 366.354 19.0262C366.354 18.3973 366.606 17.957 366.983 17.8941Z" fill="url(#paint18_linear_120_147)"/>
<path d="M366.983 25.4417C367.109 25.4417 367.235 25.4417 367.361 25.4417L382.833 29.5929C383.4 29.7187 383.84 30.4734 383.84 31.2282C383.84 31.7943 383.588 32.2346 383.211 32.3603C383.085 32.3603 382.959 32.3603 382.833 32.3603L367.361 28.2092C366.795 28.0834 366.354 27.3286 366.354 26.5739C366.354 26.0078 366.606 25.5675 366.983 25.4417Z" fill="url(#paint19_linear_120_147)"/>
<path d="M247.857 19.3407C248.423 19.215 248.989 19.215 249.555 19.3407L360.442 49.0909C363.084 49.7827 365.159 53.2421 365.159 56.8272V143.813C365.159 146.518 363.901 148.531 362.14 149.034C361.574 149.16 361.008 149.16 360.442 149.034L249.555 119.346C246.913 118.655 244.838 115.195 244.838 111.61V24.5612C244.838 21.7937 246.096 19.8439 247.857 19.3407Z" fill="url(#paint20_linear_120_147)"/>
<path d="M282.89 28.2721L249.555 19.3407C248.926 19.152 248.36 19.152 247.857 19.3407C246.096 19.8439 244.838 21.7937 244.838 24.5612V111.547C244.838 115.132 246.976 118.592 249.555 119.284L282.89 128.215V28.2721Z" fill="url(#paint21_linear_120_147)"/>
<path d="M360.442 49.0909L249.555 19.3407C248.926 19.152 248.36 19.152 247.857 19.3407C246.096 19.8439 244.838 21.7937 244.838 24.5612V38.7129L365.222 70.9789V56.8272C365.159 53.2421 363.084 49.7827 360.442 49.0909Z" fill="url(#paint22_linear_120_147)"/>
<path d="M291.445 106.704C291.633 106.641 291.885 106.641 292.136 106.704L351.637 122.617C352.706 122.869 353.524 124.315 353.524 125.699V137.775C353.524 138.844 353.02 139.662 352.329 139.851C352.14 139.914 351.888 139.914 351.637 139.851L292.136 123.938C291.067 123.686 290.25 122.24 290.25 120.856V108.843C290.25 107.711 290.753 106.893 291.445 106.704Z" fill="white"/>
<path d="M296.35 112.113C296.728 111.988 297.168 111.988 297.608 112.113C299.558 112.617 301.13 115.195 301.13 117.837C301.13 119.85 300.187 121.359 298.929 121.674C298.552 121.799 298.111 121.799 297.671 121.674C295.721 121.17 294.149 118.592 294.149 115.95C294.149 113.937 295.029 112.491 296.35 112.113Z" fill="url(#paint23_linear_120_147)"/>
<path d="M306.98 116.894C307.043 116.894 307.106 116.894 307.169 116.894L343.398 126.58C343.712 126.642 343.964 127.083 343.964 127.46C343.964 127.775 343.838 128.026 343.586 128.089C343.523 128.089 343.46 128.089 343.398 128.089L307.169 118.403C306.855 118.34 306.603 117.9 306.603 117.522C306.666 117.208 306.792 116.956 306.98 116.894Z" fill="url(#paint24_linear_120_147)"/>
<path d="M306.98 120.542C307.043 120.542 307.106 120.542 307.169 120.542L323.019 124.756C323.334 124.818 323.585 125.259 323.585 125.636C323.585 125.951 323.459 126.202 323.208 126.265C323.145 126.265 323.082 126.265 323.019 126.265L307.169 122.051C306.855 121.988 306.603 121.548 306.603 121.17C306.666 120.793 306.792 120.604 306.98 120.542Z" fill="url(#paint25_linear_120_147)"/>
<path d="M291.445 81.7972C291.633 81.7343 291.885 81.7343 292.136 81.7972L351.637 97.71C352.706 97.9616 353.524 99.4082 353.524 100.792V112.805C353.524 113.874 353.02 114.692 352.329 114.881C352.14 114.944 351.888 114.944 351.637 114.881L292.136 98.968C291.067 98.7164 290.25 97.2698 290.25 95.886V83.8728C290.25 82.8035 290.753 81.9859 291.445 81.7972Z" fill="white"/>
<path d="M296.35 87.2063C296.728 87.0805 297.168 87.0805 297.608 87.2063C299.558 87.7095 301.13 90.2882 301.13 92.9299C301.13 94.9426 300.187 96.4521 298.929 96.7666C298.552 96.8924 298.111 96.8924 297.671 96.7666C295.721 96.2634 294.149 93.6847 294.149 91.043C294.149 89.0303 295.029 87.5208 296.35 87.2063Z" fill="url(#paint26_linear_120_147)"/>
<path d="M306.98 91.9864C307.043 91.9864 307.106 91.9864 307.169 91.9864L343.398 101.673C343.712 101.735 343.964 102.176 343.964 102.553C343.964 102.868 343.838 103.119 343.586 103.182C343.523 103.182 343.46 103.182 343.398 103.182L307.169 93.496C306.855 93.4331 306.603 92.9928 306.603 92.6154C306.666 92.3009 306.792 92.0493 306.98 91.9864Z" fill="url(#paint27_linear_120_147)"/>
<path d="M306.98 95.6344C307.043 95.6344 307.106 95.6344 307.169 95.6344L323.019 99.8485C323.334 99.9114 323.585 100.352 323.585 100.729C323.585 101.044 323.459 101.295 323.208 101.358C323.145 101.358 323.082 101.358 323.019 101.358L307.169 97.144C306.855 97.0811 306.603 96.6408 306.603 96.2634C306.666 95.886 306.792 95.6973 306.98 95.6344Z" fill="url(#paint28_linear_120_147)"/>
<path d="M291.445 56.8901C291.633 56.8272 291.885 56.8272 292.136 56.8901L351.637 72.8029C352.706 73.0545 353.524 74.5011 353.524 75.8849V87.8981C353.524 88.9674 353.02 89.785 352.329 89.9737C352.14 90.0366 351.888 90.0366 351.637 89.9737L292.136 74.0609C291.067 73.8093 290.25 72.3627 290.25 70.9789V58.9657C290.25 57.8964 290.753 57.0788 291.445 56.8901Z" fill="white"/>
<path d="M296.35 62.2992C296.728 62.1734 297.168 62.1734 297.608 62.2992C299.558 62.8024 301.13 65.3811 301.13 68.0228C301.13 70.0355 300.187 71.545 298.929 71.8595C298.552 71.9853 298.111 71.9853 297.671 71.8595C295.721 71.3563 294.149 68.7775 294.149 66.1359C294.149 64.1232 295.029 62.6137 296.35 62.2992Z" fill="url(#paint29_linear_120_147)"/>
<path d="M306.98 67.0793C307.043 67.0793 307.106 67.0793 307.169 67.0793L343.398 76.7654C343.712 76.8283 343.964 77.2686 343.964 77.646C343.964 77.9604 343.838 78.212 343.586 78.2749C343.523 78.2749 343.46 78.2749 343.398 78.2749L307.169 68.5888C306.855 68.5259 306.603 68.0857 306.603 67.7083C306.666 67.3309 306.792 67.1422 306.98 67.0793Z" fill="url(#paint30_linear_120_147)"/>
<path d="M306.98 70.6644C307.043 70.6644 307.106 70.6644 307.169 70.6644L323.019 74.8785C323.334 74.9414 323.585 75.3817 323.585 75.7591C323.585 76.0735 323.459 76.3251 323.208 76.388C323.145 76.388 323.082 76.388 323.019 76.388L307.169 72.1739C306.855 72.111 306.603 71.6708 306.603 71.2934C306.666 70.9789 306.792 70.7273 306.98 70.6644Z" fill="url(#paint31_linear_120_147)"/>
<path d="M251.443 25.9449C251.694 25.882 251.883 25.882 252.134 25.9449L357.738 54.2484C358.807 54.5629 359.751 56.0095 359.751 57.519V62.6765C359.751 63.8087 359.247 64.6892 358.493 64.8779C358.241 64.9408 358.052 64.9408 357.801 64.8779L252.197 36.5115C251.128 36.197 250.185 34.7504 250.185 33.2409V28.0834C250.185 27.0141 250.688 26.1336 251.443 25.9449Z" fill="white"/>
<path d="M352.581 56.1353C353.147 56.0095 353.839 56.324 354.279 57.0787C354.908 58.0851 354.908 59.4688 354.279 60.0978C354.09 60.2865 353.964 60.4123 353.713 60.4123C353.147 60.5381 352.455 60.2236 352.015 59.4688C351.386 58.4625 351.386 57.0787 352.015 56.4498C352.203 56.324 352.392 56.1982 352.581 56.1353Z" stroke="#2E405C" stroke-width="0.628967" stroke-miterlimit="10" stroke-linecap="round"/>
<path d="M355.348 61.9218L354.279 60.0978" stroke="#2E405C" stroke-width="0.628967" stroke-miterlimit="10" stroke-linecap="round"/>
<path d="M251.254 47.6442C251.442 47.5814 251.694 47.5814 251.883 47.6442L274.337 53.6823C275.28 53.9339 276.098 55.1919 276.098 56.5127C276.098 57.519 275.658 58.2738 274.966 58.4625C274.777 58.5254 274.526 58.5254 274.337 58.4625L251.883 52.4244C250.939 52.1728 250.122 50.9149 250.122 49.5941C250.184 48.5877 250.625 47.8329 251.254 47.6442Z" fill="white"/>
<g opacity="0.5">
<path opacity="0.5" d="M251.254 59.5946C251.442 59.5317 251.694 59.5317 251.883 59.5946L260.94 62.0476C261.883 62.2992 262.701 63.5571 262.701 64.878C262.701 65.8843 262.261 66.6391 261.569 66.8277C261.38 66.8906 261.128 66.8906 260.94 66.8277L251.883 64.3748C250.939 64.1232 250.122 62.8653 250.122 61.5444C250.184 60.4752 250.625 59.7833 251.254 59.5946Z" fill="white"/>
</g>
<path d="M172.758 148.971C172.758 147.839 174.394 146.644 177.727 145.763C184.331 144.002 195.087 144.002 201.691 145.763C205.024 146.644 206.66 147.839 206.66 148.971C206.66 150.103 205.024 151.298 201.691 152.179C195.087 153.94 184.331 153.94 177.727 152.179C174.394 151.298 172.758 150.166 172.758 148.971Z" fill="url(#paint32_linear_120_147)"/>
<path d="M172.758 147.021C172.758 148.027 174.142 149.034 177.035 149.789C182.696 151.298 191.879 151.298 197.54 149.789C200.37 149.034 201.817 148.027 201.817 147.021V149.285C201.817 150.292 200.37 151.298 197.54 152.053C191.879 153.562 182.696 153.562 177.035 152.053C174.205 151.298 172.758 150.292 172.758 149.285V147.021Z" fill="url(#paint33_linear_120_147)"/>
<path d="M172.758 147.021C172.758 146.015 174.205 145.008 177.035 144.254C182.696 142.744 191.879 142.744 197.54 144.254C200.37 145.008 201.817 146.015 201.817 147.021C201.817 148.027 200.37 149.034 197.54 149.789C191.879 151.298 182.696 151.298 177.035 149.789C174.142 149.034 172.758 148.027 172.758 147.021Z" fill="url(#paint34_linear_120_147)"/>
<path d="M184.96 146.644L160.745 87.8982" stroke="url(#paint35_linear_120_147)" stroke-width="1.8869" stroke-miterlimit="10" stroke-linecap="round" stroke-linejoin="round"/>
<path d="M189.111 145.512L164.896 86.8289" stroke="url(#paint36_linear_120_147)" stroke-width="1.8869" stroke-miterlimit="10" stroke-linecap="round" stroke-linejoin="round"/>
<path d="M187.225 139.725C184.457 139.725 182.256 141.926 182.256 144.694V146.832C182.256 147.147 182.759 147.524 183.702 147.776C185.652 148.279 188.797 148.279 190.747 147.776C191.69 147.524 192.194 147.147 192.194 146.832V144.694C192.194 141.926 189.992 139.725 187.225 139.725Z" fill="url(#paint37_linear_120_147)"/>
<path d="M163.701 92.867C166.445 92.867 168.67 90.6424 168.67 87.8982C168.67 85.1539 166.445 82.9293 163.701 82.9293C160.957 82.9293 158.732 85.1539 158.732 87.8982C158.732 90.6424 160.957 92.867 163.701 92.867Z" fill="url(#paint38_linear_120_147)"/>
<path d="M165.273 87.7724L198.986 78.7152" stroke="url(#paint39_linear_120_147)" stroke-width="1.8869" stroke-miterlimit="10" stroke-linecap="round" stroke-linejoin="round"/>
<path d="M196.282 84.1244L181.061 80.3506C177.036 79.3442 174.583 75.2559 175.589 71.2305C176.595 67.2051 180.684 64.7522 184.709 65.7585L199.93 69.5323C203.955 70.5387 206.408 74.627 205.402 78.6523C204.459 82.6777 200.37 85.1307 196.282 84.1244Z" fill="url(#paint40_linear_120_147)"/>
<path d="M202.949 66.5762L210.686 68.2115L205.717 91.1059L197.603 88.9045C191.565 87.2692 187.98 81.1682 189.426 75.1301C190.81 69.0921 196.848 65.2554 202.949 66.5762Z" fill="url(#paint41_linear_120_147)"/>
<path d="M205.213 90.9801C202.132 90.1624 199.93 86.6402 199.93 81.8601C199.93 75.6333 203.641 69.5323 208.233 68.3373C209.302 68.0228 210.308 68.0228 211.252 68.2744C214.334 69.092 216.535 72.6143 216.535 77.3944C216.535 83.6212 212.824 89.7222 208.233 90.9172C207.226 91.2317 206.157 91.2317 205.213 90.9801Z" fill="url(#paint42_linear_120_147)"/>
<path d="M178.042 73.3061C178.105 73.3061 178.168 73.3061 178.231 73.3061L184.206 74.8785C184.52 74.9414 184.835 75.3817 184.835 75.8849C184.835 76.2623 184.646 76.5139 184.457 76.5767C184.394 76.5767 184.332 76.5767 184.269 76.5767L178.294 75.0043C177.979 74.9414 177.665 74.5012 177.665 73.998C177.665 73.6206 177.79 73.369 178.042 73.3061Z" fill="white"/>
<path d="M179.426 69.2807C179.489 69.2807 179.615 69.2807 179.678 69.2807L185.59 70.916C185.904 70.9789 186.03 71.4821 185.904 71.9224C185.779 72.2998 185.527 72.5514 185.213 72.6143C185.15 72.6143 185.024 72.6143 184.961 72.6143L179.049 70.9789C178.734 70.916 178.608 70.4129 178.734 69.9726C178.86 69.5952 179.112 69.3436 179.426 69.2807Z" fill="white"/>
<path d="M207.981 78.5894C207.981 75.6962 205.591 73.3061 202.698 73.3061C202.572 73.3061 202.446 73.3061 202.32 73.3061C200.874 75.7591 199.93 78.7781 199.93 81.8601C199.93 82.3004 199.93 82.6777 199.993 83.118C200.748 83.5583 201.691 83.8728 202.635 83.8728C205.591 83.8728 207.981 81.4827 207.981 78.5894Z" fill="url(#paint43_linear_120_147)"/>
<path d="M377.235 206.396C377.235 205.2 378.87 204.068 382.204 203.188C388.871 201.427 399.626 201.427 406.23 203.188C409.564 204.068 411.199 205.263 411.199 206.396C411.199 207.591 409.564 208.723 406.23 209.603C399.563 211.364 388.808 211.364 382.204 209.603C378.87 208.723 377.235 207.528 377.235 206.396Z" fill="url(#paint44_linear_120_147)"/>
<path d="M377.235 179.853C377.235 180.734 378.493 181.614 381.009 182.306C386.103 183.69 394.28 183.69 399.375 182.306C401.89 181.614 403.148 180.734 403.148 179.853V206.396C403.148 207.276 401.89 208.157 399.375 208.848C394.28 210.232 386.103 210.232 381.009 208.848C378.493 208.157 377.235 207.276 377.235 206.396V179.853Z" fill="url(#paint45_linear_120_147)"/>
<path d="M383.085 208.031L379.122 204.068C378.619 203.565 378.619 202.747 379.122 202.244C379.626 201.741 380.443 201.741 380.947 202.244L384.909 206.207C385.412 206.71 385.412 207.528 384.909 208.031C384.406 208.534 383.588 208.534 383.085 208.031Z" fill="url(#paint46_linear_120_147)"/>
<path d="M383.085 191.552L379.122 187.589C378.619 187.086 378.619 186.269 379.122 185.765C379.626 185.262 380.443 185.262 380.947 185.765L384.909 189.728C385.412 190.231 385.412 191.049 384.909 191.552C384.406 192.055 383.588 192.055 383.085 191.552Z" fill="url(#paint47_linear_120_147)"/>
<path d="M377.235 179.853C377.235 178.973 378.493 178.092 381.009 177.4C386.103 176.016 394.28 176.016 399.375 177.4C401.89 178.092 403.148 178.973 403.148 179.853C403.148 180.734 401.89 181.614 399.375 182.306C394.28 183.69 386.103 183.69 381.009 182.306C378.493 181.677 377.235 180.734 377.235 179.853Z" fill="url(#paint48_linear_120_147)"/>
<path d="M399.438 181.174C394.343 179.79 386.167 179.79 381.072 181.174C380.38 181.363 379.814 181.551 379.374 181.74C379.877 181.929 380.443 182.117 381.072 182.306C386.167 183.69 394.343 183.69 399.438 182.306C400.13 182.117 400.696 181.929 401.136 181.74C400.633 181.551 400.067 181.363 399.438 181.174Z" fill="url(#paint49_linear_120_147)"/>
<path d="M379.94 186.709L376.103 187.715C375.223 187.967 374.531 189.099 374.531 190.294V202.496C374.531 203.691 375.223 204.446 376.103 204.194L379.94 203.188" stroke="url(#paint50_linear_120_147)" stroke-width="3.14483" stroke-miterlimit="10" stroke-linecap="round" stroke-linejoin="round"/>
<path d="M363.587 425.716C363.587 422.697 367.864 419.741 376.418 417.414C393.526 412.822 421.263 412.822 438.371 417.414C446.925 419.678 451.202 422.697 451.202 425.716C451.202 428.735 446.925 431.691 438.371 434.019C421.263 438.61 393.526 438.61 376.418 434.019C367.864 431.691 363.587 428.735 363.587 425.716Z" fill="url(#paint51_linear_120_147)"/>
<path d="M363.587 358.165C363.587 360.43 366.858 362.757 373.399 364.518C386.481 368.04 407.678 368.04 420.76 364.518C427.301 362.757 430.572 360.492 430.572 358.165V425.779C430.572 428.043 427.301 430.371 420.76 432.132C407.678 435.654 386.481 435.654 373.399 432.132C366.858 430.371 363.587 428.106 363.587 425.779V358.165Z" fill="url(#paint52_linear_120_147)"/>
<path d="M363.587 358.165C363.587 355.901 366.858 353.574 373.399 351.813C386.481 348.29 407.678 348.29 420.76 351.813C427.301 353.574 430.572 355.838 430.572 358.165C430.572 360.43 427.301 362.757 420.76 364.518C407.678 368.04 386.481 368.04 373.399 364.518C366.858 362.757 363.587 360.43 363.587 358.165Z" fill="url(#paint53_linear_120_147)"/>
<path d="M420.76 361.562C407.677 358.039 386.481 358.039 373.399 361.562C371.701 362.002 370.254 362.505 368.933 363.071C370.191 363.574 371.638 364.078 373.399 364.518C386.481 368.04 407.677 368.04 420.76 364.518C422.458 364.078 423.968 363.574 425.226 363.071C423.905 362.505 422.458 362.002 420.76 361.562Z" fill="url(#paint54_linear_120_147)"/>
<path d="M396.985 367.222C396.985 367.222 399.438 317.094 413.338 294.64C430.195 267.468 466.109 282.941 464.851 308.162C463.593 333.384 461.895 349.8 467.367 353.825C467.367 353.825 445.227 337.787 435.541 319.861C425.855 301.936 426.547 283.696 440.824 282.375C440.824 282.375 426.861 276.651 415.1 296.275C403.338 315.899 400.004 367.285 400.004 367.285C400.004 367.285 399.627 367.348 396.985 367.222Z" fill="url(#paint55_linear_120_147)"/>
<path d="M396.985 367.222C396.985 367.222 396.419 316.15 358.87 312.817C321.321 309.483 312.452 348.668 318.993 376.154C318.993 376.154 319.434 368.103 326.352 362.631C333.271 357.096 330.566 349.548 330.755 342.818C330.944 336.088 371.827 352.064 366.606 316.402C366.606 316.402 394.406 321.622 393.966 367.222H396.985Z" fill="url(#paint56_linear_120_147)"/>
<path d="M402.52 258.663C402.52 258.663 396.67 243.693 411.199 234.447C425.729 225.202 438.622 231.114 443.34 225.516C448.12 219.918 469.064 227.655 474.096 211.05C474.096 211.05 476.486 235.768 447.239 247.153C418.055 258.663 402.52 258.663 402.52 258.663Z" fill="url(#paint57_linear_120_147)"/>
<path d="M396.985 367.222C396.985 367.222 386.041 287.532 400.004 258.159C413.967 228.787 469.63 246.586 474.096 211.176C474.096 211.176 476.863 232.183 472.712 241.114C468.498 250.046 461.517 246.398 459.001 255.392C456.485 264.323 418.998 285.016 402.519 258.726C402.519 258.726 395.915 270.99 394.091 298.665C392.267 326.34 398.683 367.222 398.683 367.222H396.985Z" fill="url(#paint58_linear_120_147)"/>
<path d="M400.004 367.222C400.004 367.222 399.437 332.503 382.959 285.645C382.959 285.645 394.028 262.814 381.197 252.373C368.366 241.932 347.422 240.108 344.214 227.717C341.006 215.327 321.508 209.352 303.646 215.39C303.646 215.39 302.577 228.346 316.98 237.215C327.421 243.63 333.207 249.92 334.905 266.21C337.044 286.966 358.24 306.779 381.197 288.035C381.197 288.035 396.23 323.069 396.985 367.222H400.004Z" fill="url(#paint59_linear_120_147)"/>
<path d="M303.646 215.39C303.646 215.39 302.577 228.346 316.98 237.215C327.421 243.63 333.207 249.92 334.905 266.21C337.044 286.966 358.24 306.779 381.197 288.035C381.197 288.035 356.731 235.831 303.646 215.39Z" fill="url(#paint60_linear_120_147)"/>
<path d="M155.21 379.802C155.21 379.802 155.839 388.104 154.078 396.218C152.254 404.269 151.499 408.357 151.625 412.76C151.751 417.162 155.902 423.389 175.337 416.596C188.419 412.005 199.363 407.35 199.804 400.558C200.244 393.765 193.451 394.142 185.903 395.149C179.677 395.966 177.098 379.802 177.098 379.802H155.21Z" fill="url(#paint61_linear_120_147)"/>
<path d="M147.536 324.39C151.436 360.241 154.832 383.261 154.832 383.261C154.832 383.261 165.588 387.853 178.356 382.884C178.356 382.884 190.621 282.878 192.445 268.789C194.269 254.7 191.375 231.428 171.94 230.925C149.046 230.422 141.373 267.531 147.536 324.39Z" fill="url(#paint62_linear_120_147)"/>
<path d="M199.803 400.495C199.866 399.866 199.803 399.3 199.741 398.797C199.489 399.677 199.049 400.683 198.231 401.816C195.526 405.526 177.349 413.703 165.21 416.156C158.921 417.414 154.707 416.219 152.002 414.772C153.386 418.672 158.858 422.257 175.337 416.533C188.356 411.942 199.363 407.288 199.803 400.495Z" fill="url(#paint63_linear_120_147)"/>
<path d="M146.405 142.618C135.524 138.719 99.2952 123.749 83.5081 119.661C62.249 114.126 51.9969 145.197 71.1175 151.738C101.811 162.179 127.473 168.972 138.857 171.173C155.651 174.381 165.651 149.474 146.405 142.618Z" fill="url(#paint64_linear_120_147)"/>
<path d="M197.1 139.033C197.1 139.033 212.636 133.939 215.466 132.115C218.296 130.291 221.001 128.97 222.259 130.353C222.259 130.353 229.555 128.152 230.75 128.278C231.945 128.341 233.014 130.228 233.014 130.228C233.014 130.228 238.297 130.416 239.87 130.542C241.442 130.668 243.015 131.548 243.518 132.429C244.021 133.31 246.348 137.398 246.16 138.027C245.971 138.593 244.147 138.907 242.826 137.838C241.505 136.769 240.121 134.882 240.121 134.882L235.907 134.945C235.907 134.945 248.675 140.92 249.241 141.423C249.808 141.926 248.738 143.876 245.971 143.436C243.203 142.933 238.612 141.046 238.612 141.046L232.196 141.549C232.196 141.549 226.158 144.316 224.523 146.455C222.888 148.593 227.228 149.034 229.555 149.411C231.882 149.788 234.209 149.977 233.958 152.116C233.643 154.946 230.75 154.443 227.291 154.38C223.768 154.317 219.303 154.128 214.522 152.241C209.742 150.355 202.761 152.304 202.761 152.304L197.1 139.033Z" fill="url(#paint65_linear_120_147)"/>
<path d="M198.421 136.14C198.421 136.14 154.456 140.291 143.512 141.801C132.505 143.247 126.341 153.94 128.983 162.494C131.625 171.048 141.877 174.192 158.482 169.349C175.086 164.506 206.22 153.499 206.22 153.499C206.22 153.499 207.667 140.102 198.421 136.14Z" fill="url(#paint66_linear_120_147)"/>
<path d="M87.9736 114.126C87.9736 114.126 93.0683 107.019 92.2506 97.8358C91.7474 92.1751 86.2754 74.7527 93.6972 61.0412C101.182 47.3298 123.888 51.1036 129.045 57.7077C134.14 64.3119 135.712 70.7273 135.083 77.7718C134.454 84.8162 136.656 85.0049 137.725 86.766C138.794 88.5271 134.391 90.5398 134.391 90.5398C134.391 90.5398 134.266 104.44 128.479 107.396C125.586 108.843 122.693 108.025 122.693 108.025L122.315 119.661L87.9736 114.126Z" fill="url(#paint67_linear_120_147)"/>
<path d="M89.2315 96.6408C81.9354 84.0614 82.8789 71.7966 85.3319 63.3684C88.4767 52.6131 95.7098 51.9212 95.7098 51.9212C95.7098 51.9212 99.1063 44.122 111.623 43.4931C122.693 42.927 135.586 45.3171 137.914 54.1226C139.926 61.6702 136.341 64.5635 133.511 65.444C130.869 66.2617 128.793 67.3938 131.498 74.0609C134.203 80.7279 127.598 84.6275 127.976 89.3448C128.353 94.062 132.819 90.6027 134.454 90.6027C136.09 90.6027 135.712 97.7729 135.02 100.477C133.699 105.572 130.429 108.654 126.026 107.836C120.68 106.83 124.013 97.3326 124.642 89.0932C125.271 80.7908 124.454 78.1492 120.554 77.4573C114.579 76.3251 109.358 85.9483 117.158 91.6719C118.667 92.7412 120.302 96.8924 115.019 102.176C110.05 106.956 94.9551 106.453 89.2315 96.6408Z" fill="url(#paint68_linear_120_147)"/>
<path d="M60.9277 434.459C60.9277 430.245 67.7206 426.031 81.2434 422.823C108.352 416.408 152.317 416.408 179.488 422.823C193.074 426.031 199.804 430.245 199.804 434.459C199.804 438.673 193.011 442.887 179.488 446.095C152.38 452.51 108.415 452.51 81.2434 446.095C67.7206 442.887 60.9277 438.673 60.9277 434.459Z" fill="url(#paint69_linear_120_147)"/>
<path d="M60.1729 427.918C60.1729 431.817 65.7078 435.717 76.7776 438.673C98.9172 444.585 134.831 444.585 157.034 438.673C168.104 435.717 173.638 431.817 173.638 427.918V434.144C173.638 438.044 168.104 441.944 157.034 444.9C134.894 450.812 98.9801 450.812 76.7776 444.9C65.7078 441.944 60.1729 438.044 60.1729 434.144V427.918Z" fill="url(#paint70_linear_120_147)"/>
<path d="M60.1729 427.918C60.1729 424.018 65.7078 420.118 76.7776 417.162C98.9172 411.25 134.831 411.25 157.034 417.162C168.104 420.118 173.638 424.018 173.638 427.918C173.638 431.817 168.104 435.717 157.034 438.673C134.894 444.585 98.9801 444.585 76.7776 438.673C65.7078 435.654 60.1729 431.754 60.1729 427.918Z" fill="url(#paint71_linear_120_147)"/>
<path d="M110.868 282.563C110.868 283.004 111.434 283.381 112.629 283.696C115.019 284.325 118.793 284.325 121.183 283.696C122.378 283.381 122.944 282.941 122.944 282.563V427.1C122.944 427.54 122.378 427.918 121.183 428.232C118.793 428.861 115.019 428.861 112.629 428.232C111.434 427.918 110.868 427.477 110.868 427.1V282.563Z" fill="url(#paint72_linear_120_147)"/>
<path d="M194.458 283.381C193.766 283.192 193.074 283.192 192.319 283.381L159.864 292.061C152.191 294.136 144.392 294.011 137.159 292.061L66.7773 273.192C74.0105 275.142 81.8726 275.204 89.4831 273.192L121.938 264.512C122.63 264.323 123.384 264.323 124.076 264.512L194.458 283.381Z" fill="url(#paint73_linear_120_147)"/>
<path d="M317.106 415.527H240.624V429.805H317.106V415.527Z" fill="url(#paint74_linear_120_147)"/>
<path d="M133.888 282.563C112.629 288.916 63.3184 290.803 51.2422 250.486C51.2422 250.486 124.768 235.202 142.82 230.422C162.884 225.076 187.225 223.315 190.495 243.127C194.71 268.852 158.796 275.142 133.888 282.563Z" fill="url(#paint75_linear_120_147)"/>
<path d="M222.007 393.891C222.007 393.891 222.635 405.212 220.308 414.584C217.667 425.15 221.755 428.861 226.912 429.239C242.762 430.496 264.336 429.238 276.412 426.974C283.897 425.59 282.765 414.961 271.066 413.2C247.48 409.615 244.335 394.016 244.335 394.016L222.007 393.891Z" fill="url(#paint76_linear_120_147)"/>
<path d="M219.491 421.251C222.258 428.987 267.481 425.339 273.079 424.333C275.657 423.829 281.318 422.383 280.815 420.056C281.758 423.2 280.186 426.282 276.349 426.974C264.273 429.176 242.7 430.496 226.85 429.239C223.013 428.987 219.742 426.786 219.491 421.251Z" fill="url(#paint77_linear_120_147)"/>
<path d="M66.7148 250.486C66.7148 250.486 75.9607 291.683 125.964 290.803C158.733 290.237 194.458 277.217 197.414 278.978C200.37 280.802 192.068 304.703 204.27 340.177C215.906 374.078 221.504 397.539 221.504 397.539C221.504 397.539 232.448 401.816 245.027 395.211C245.027 395.211 239.178 291.621 238.423 277.406C237.668 263.191 234.397 236.712 201.314 236.712C182.382 236.775 66.7148 250.486 66.7148 250.486Z" fill="url(#paint78_linear_120_147)"/>
<path d="M76.1494 121.045C76.1494 121.045 80.049 112.365 83.5083 110.541C90.4899 106.83 114.705 109.597 121.624 113.812C128.542 118.026 130.807 129.033 130.807 129.033L76.1494 121.045Z" fill="url(#paint79_linear_120_147)"/>
<path d="M152.38 241.743C152.38 241.743 133.071 270.676 82.942 267.468C54.5127 265.644 47.3425 251.492 49.9213 246.209C52.5629 240.989 65.7712 199.477 59.8589 160.921C53.9467 122.366 68.9161 116.579 81.747 114.566C94.5779 112.554 148.795 115.761 146.782 145.637C144.769 175.45 130.618 207.591 152.38 241.743Z" fill="url(#paint80_linear_120_147)"/>
<path d="M75.52 219.918C74.4507 219.604 73.2557 219.793 72.2494 220.421C70.3625 221.679 69.7964 224.195 71.0543 226.082L104.893 278.098C112.063 289.168 122.881 296.778 135.02 299.986L64.6389 281.117C52.5627 277.846 41.7445 270.299 34.5113 259.229L0.672916 207.276C-0.585018 205.389 -0.0189474 202.81 1.86795 201.615C2.8743 200.924 4.06934 200.798 5.13858 201.112L75.52 219.918Z" fill="url(#paint81_linear_120_147)"/>
<path d="M75.5199 219.918C76.4634 220.17 77.3439 220.736 77.91 221.617L111.748 273.632C117.787 282.941 126.907 289.356 137.096 292.061C144.329 294.011 152.191 294.074 159.801 292.061L192.256 283.381C192.948 283.192 193.703 283.192 194.395 283.381C195.778 283.758 196.911 284.828 197.288 286.274C197.854 288.476 196.596 290.74 194.395 291.306L161.94 299.986C157.411 301.181 152.883 301.747 148.417 301.747C143.826 301.747 139.36 301.118 135.02 299.986C122.944 296.715 112.126 289.168 104.893 278.098L71.0543 226.145C69.7963 224.258 70.3624 221.679 72.2493 220.484C73.2556 219.793 74.4507 219.604 75.5199 219.918Z" fill="url(#paint82_linear_120_147)"/>
<path d="M268.425 155.386C268.425 155.386 266.16 163.94 266.349 166.205C266.538 168.469 268.047 168.783 268.613 168.28C269.179 167.777 273.142 156.644 273.142 156.644L268.425 155.386Z" fill="url(#paint83_linear_120_147)"/>
<path d="M239.303 156.644C239.303 156.644 249.241 151.046 256.6 146.329C263.959 141.549 266.16 142.492 268.047 143.436C269.997 144.379 269.557 146.581 269.557 146.581C269.557 146.581 273.33 146.769 273.079 150.48C273.079 150.48 277.482 151.046 275.972 154.82C275.972 154.82 278.802 155.952 277.482 159.6C276.224 163.248 274.4 169.161 273.016 169.475C271.632 169.79 270.563 167.777 271.192 165.198C271.821 162.619 272.261 159.726 272.261 159.726C272.261 159.726 269.179 162.431 266.349 164.129C263.518 165.827 256.16 165.135 249.807 168.406L239.303 156.644Z" fill="url(#paint84_linear_120_147)"/>
<path d="M240.31 154.003C240.31 154.003 195.968 165.387 185.401 168.783C174.834 172.18 171.123 184.004 175.212 191.992C179.3 199.98 191.313 201.427 206.786 193.753C222.258 186.08 250.939 169.727 250.939 169.727C250.939 169.727 250.122 156.33 240.31 154.003Z" fill="url(#paint85_linear_120_147)"/>
<path d="M195.276 170.796C186.722 163.06 151.877 136.266 138.543 126.957C125.209 117.648 101.182 139.222 125.334 160.858C149.487 182.495 169.425 191.426 179.488 197.087C194.458 205.515 213.704 187.527 195.276 170.796Z" fill="url(#paint86_linear_120_147)"/>
<defs>
<linearGradient id="paint0_linear_120_147" x1="324.689" y1="328.354" x2="324.689" y2="128.126" gradientUnits="userSpaceOnUse">
<stop stop-color="white"/>
<stop offset="1" stop-color="#AEBDDF"/>
</linearGradient>
<linearGradient id="paint1_linear_120_147" x1="452.725" y1="280.556" x2="452.725" y2="145.331" gradientUnits="userSpaceOnUse">
<stop stop-color="white"/>
<stop offset="1" stop-color="#AEBDDF"/>
</linearGradient>
<linearGradient id="paint2_linear_120_147" x1="83.3273" y1="251.736" x2="83.3273" y2="127.247" gradientUnits="userSpaceOnUse">
<stop stop-color="white"/>
<stop offset="1" stop-color="#AEBDDF"/>
</linearGradient>
<linearGradient id="paint3_linear_120_147" x1="268.477" y1="284.758" x2="268.477" y2="220.456" gradientUnits="userSpaceOnUse">
<stop stop-color="white"/>
<stop offset="1" stop-color="#AEBDDF"/>
</linearGradient>
<linearGradient id="paint4_linear_120_147" x1="268.477" y1="230.67" x2="268.477" y2="1.28204" gradientUnits="userSpaceOnUse">
<stop stop-color="white"/>
<stop offset="1" stop-color="#AEBDDF"/>
</linearGradient>
<linearGradient id="paint5_linear_120_147" x1="331.946" y1="192.033" x2="321.98" y2="166.992" gradientUnits="userSpaceOnUse">
<stop stop-color="white" stop-opacity="0"/>
<stop offset="1" stop-color="#AEBDDF"/>
</linearGradient>
<linearGradient id="paint6_linear_120_147" x1="296.394" y1="178.21" x2="296.394" y2="134.516" gradientUnits="userSpaceOnUse">
<stop stop-color="#ACBDDE"/>
<stop offset="1" stop-color="#2E405C"/>
</linearGradient>
<linearGradient id="paint7_linear_120_147" x1="295.737" y1="175.314" x2="295.737" y2="147.718" gradientUnits="userSpaceOnUse">
<stop stop-color="white"/>
<stop offset="1" stop-color="#AEBDDF"/>
</linearGradient>
<linearGradient id="paint8_linear_120_147" x1="308.842" y1="-34.0538" x2="308.842" y2="147.324" gradientUnits="userSpaceOnUse">
<stop stop-color="white"/>
<stop offset="1" stop-color="#AEBDDF"/>
</linearGradient>
<linearGradient id="paint9_linear_120_147" x1="305.432" y1="-53.9894" x2="305.432" y2="152.797" gradientUnits="userSpaceOnUse">
<stop stop-color="#ACBDDE"/>
<stop offset="1" stop-color="#2E405C"/>
</linearGradient>
<linearGradient id="paint10_linear_120_147" x1="305.007" y1="47.6572" x2="305.007" y2="198.786" gradientUnits="userSpaceOnUse">
<stop stop-color="white"/>
<stop offset="1" stop-color="#AEBDDF"/>
</linearGradient>
<linearGradient id="paint11_linear_120_147" x1="324.112" y1="218.737" x2="312.22" y2="188.855" gradientUnits="userSpaceOnUse">
<stop stop-color="white" stop-opacity="0"/>
<stop offset="1" stop-color="#AEBDDF"/>
</linearGradient>
<linearGradient id="paint12_linear_120_147" x1="259.405" y1="203.421" x2="259.405" y2="166.016" gradientUnits="userSpaceOnUse">
<stop stop-color="#ACBDDE"/>
<stop offset="1" stop-color="#2E405C"/>
</linearGradient>
<linearGradient id="paint13_linear_120_147" x1="259.405" y1="201.206" x2="259.405" y2="167.464" gradientUnits="userSpaceOnUse">
<stop stop-color="white"/>
<stop offset="1" stop-color="#AEBDDF"/>
</linearGradient>
<linearGradient id="paint14_linear_120_147" x1="258.855" y1="151.005" x2="258.855" y2="233.437" gradientUnits="userSpaceOnUse">
<stop stop-color="#ACBDDE"/>
<stop offset="1" stop-color="#2E405C"/>
</linearGradient>
<linearGradient id="paint15_linear_120_147" x1="378.996" y1="-61.1268" x2="378.996" y2="75.0516" gradientUnits="userSpaceOnUse">
<stop stop-color="white"/>
<stop offset="1" stop-color="#AEBDDF"/>
</linearGradient>
<linearGradient id="paint16_linear_120_147" x1="349.056" y1="26.7512" x2="349.056" y2="15.6994" gradientUnits="userSpaceOnUse">
<stop stop-color="#FFEFA4"/>
<stop offset="1" stop-color="#FE8F01"/>
</linearGradient>
<linearGradient id="paint17_linear_120_147" x1="349.056" y1="20.9143" x2="349.056" y2="8.89956" gradientUnits="userSpaceOnUse">
<stop stop-color="#FFEFA4"/>
<stop offset="1" stop-color="#FE8F01"/>
</linearGradient>
<linearGradient id="paint18_linear_120_147" x1="403.881" y1="29.509" x2="290.694" y2="-3.60671" gradientUnits="userSpaceOnUse">
<stop stop-color="white"/>
<stop offset="1" stop-color="#AEBDDF"/>
</linearGradient>
<linearGradient id="paint19_linear_120_147" x1="401.774" y1="36.7099" x2="288.588" y2="3.59413" gradientUnits="userSpaceOnUse">
<stop stop-color="white"/>
<stop offset="1" stop-color="#AEBDDF"/>
</linearGradient>
<linearGradient id="paint20_linear_120_147" x1="305.008" y1="140.212" x2="305.008" y2="-10.666" gradientUnits="userSpaceOnUse">
<stop stop-color="#79D985"/>
<stop offset="1" stop-color="#027A71"/>
</linearGradient>
<linearGradient id="paint21_linear_120_147" x1="263.874" y1="169.305" x2="263.874" y2="0.761299" gradientUnits="userSpaceOnUse">
<stop stop-color="#79D985"/>
<stop offset="1" stop-color="#027A71"/>
</linearGradient>
<linearGradient id="paint22_linear_120_147" x1="305.008" y1="96.9118" x2="305.008" y2="-40.9531" gradientUnits="userSpaceOnUse">
<stop stop-color="#79D985"/>
<stop offset="1" stop-color="#027A71"/>
</linearGradient>
<linearGradient id="paint23_linear_120_147" x1="297.62" y1="102.132" x2="297.62" y2="130.292" gradientUnits="userSpaceOnUse">
<stop stop-color="#FFEFA4"/>
<stop offset="1" stop-color="#FE8F01"/>
</linearGradient>
<linearGradient id="paint24_linear_120_147" x1="359.417" y1="133.561" x2="302.277" y2="115.068" gradientUnits="userSpaceOnUse">
<stop stop-color="white"/>
<stop offset="1" stop-color="#AEBDDF"/>
</linearGradient>
<linearGradient id="paint25_linear_120_147" x1="358.19" y1="137.353" x2="301.05" y2="118.86" gradientUnits="userSpaceOnUse">
<stop stop-color="white"/>
<stop offset="1" stop-color="#AEBDDF"/>
</linearGradient>
<linearGradient id="paint26_linear_120_147" x1="297.62" y1="78.5415" x2="297.62" y2="105.695" gradientUnits="userSpaceOnUse">
<stop stop-color="#FFEFA4"/>
<stop offset="1" stop-color="#FE8F01"/>
</linearGradient>
<linearGradient id="paint27_linear_120_147" x1="369.343" y1="88.0873" x2="310.07" y2="100.89" gradientUnits="userSpaceOnUse">
<stop stop-color="white"/>
<stop offset="1" stop-color="#AEBDDF"/>
</linearGradient>
<linearGradient id="paint28_linear_120_147" x1="369.07" y1="86.8219" x2="309.796" y2="99.625" gradientUnits="userSpaceOnUse">
<stop stop-color="white"/>
<stop offset="1" stop-color="#AEBDDF"/>
</linearGradient>
<linearGradient id="paint29_linear_120_147" x1="297.62" y1="58.9812" x2="297.62" y2="82.4433" gradientUnits="userSpaceOnUse">
<stop stop-color="#FFEFA4"/>
<stop offset="1" stop-color="#FE8F01"/>
</linearGradient>
<linearGradient id="paint30_linear_120_147" x1="354.898" y1="80.1655" x2="298.707" y2="65.9399" gradientUnits="userSpaceOnUse">
<stop stop-color="white"/>
<stop offset="1" stop-color="#AEBDDF"/>
</linearGradient>
<linearGradient id="paint31_linear_120_147" x1="354.072" y1="83.4256" x2="297.881" y2="69.1999" gradientUnits="userSpaceOnUse">
<stop stop-color="white"/>
<stop offset="1" stop-color="#AEBDDF"/>
</linearGradient>
<linearGradient id="paint32_linear_120_147" x1="231.522" y1="152.159" x2="188.94" y2="148.938" gradientUnits="userSpaceOnUse">
<stop stop-color="white"/>
<stop offset="1" stop-color="#AEBDDF"/>
</linearGradient>
<linearGradient id="paint33_linear_120_147" x1="173.569" y1="133.216" x2="193.179" y2="154.986" gradientUnits="userSpaceOnUse">
<stop stop-color="#ACBDDE"/>
<stop offset="1" stop-color="#2E405C"/>
</linearGradient>
<linearGradient id="paint34_linear_120_147" x1="187.236" y1="141.529" x2="187.236" y2="176.796" gradientUnits="userSpaceOnUse">
<stop stop-color="#ACBDDE"/>
<stop offset="1" stop-color="#2E405C"/>
</linearGradient>
<linearGradient id="paint35_linear_120_147" x1="159.868" y1="87.2737" x2="185.853" y2="147.277" gradientUnits="userSpaceOnUse">
<stop stop-color="#ACBDDE"/>
<stop offset="1" stop-color="#2E405C"/>
</linearGradient>
<linearGradient id="paint36_linear_120_147" x1="163.998" y1="86.1696" x2="189.984" y2="146.172" gradientUnits="userSpaceOnUse">
<stop stop-color="#ACBDDE"/>
<stop offset="1" stop-color="#2E405C"/>
</linearGradient>
<linearGradient id="paint37_linear_120_147" x1="182.884" y1="135.226" x2="188.977" y2="149.296" gradientUnits="userSpaceOnUse">
<stop stop-color="#ACBDDE"/>
<stop offset="1" stop-color="#2E405C"/>
</linearGradient>
<linearGradient id="paint38_linear_120_147" x1="161.745" y1="83.3581" x2="165.699" y2="92.4879" gradientUnits="userSpaceOnUse">
<stop stop-color="#ACBDDE"/>
<stop offset="1" stop-color="#2E405C"/>
</linearGradient>
<linearGradient id="paint39_linear_120_147" x1="199.849" y1="78.0997" x2="163.781" y2="85.1456" gradientUnits="userSpaceOnUse">
<stop stop-color="#ACBDDE"/>
<stop offset="1" stop-color="#2E405C"/>
</linearGradient>
<linearGradient id="paint40_linear_120_147" x1="190.51" y1="50.1184" x2="190.51" y2="89.7642" gradientUnits="userSpaceOnUse">
<stop stop-color="#ACBDDE"/>
<stop offset="1" stop-color="#2E405C"/>
</linearGradient>
<linearGradient id="paint41_linear_120_147" x1="199.866" y1="58.6505" x2="199.866" y2="103.011" gradientUnits="userSpaceOnUse">
<stop stop-color="#ACBDDE"/>
<stop offset="1" stop-color="#2E405C"/>
</linearGradient>
<linearGradient id="paint42_linear_120_147" x1="256.682" y1="79.6575" x2="201.489" y2="79.6575" gradientUnits="userSpaceOnUse">
<stop stop-color="#ACBDDE"/>
<stop offset="1" stop-color="#2E405C"/>
</linearGradient>
<linearGradient id="paint43_linear_120_147" x1="210.605" y1="78.588" x2="197.998" y2="78.588" gradientUnits="userSpaceOnUse">
<stop stop-color="#FFEFA4"/>
<stop offset="1" stop-color="#FE8F01"/>
</linearGradient>
<linearGradient id="paint44_linear_120_147" x1="405.343" y1="177.03" x2="393.524" y2="208.284" gradientUnits="userSpaceOnUse">
<stop stop-color="white"/>
<stop offset="1" stop-color="#AEBDDF"/>
</linearGradient>
<linearGradient id="paint45_linear_120_147" x1="374.429" y1="195.186" x2="418.029" y2="193.811" gradientUnits="userSpaceOnUse">
<stop stop-color="#ACBDDE"/>
<stop offset="1" stop-color="#2E405C"/>
</linearGradient>
<linearGradient id="paint46_linear_120_147" x1="384.492" y1="208.102" x2="379.561" y2="202.164" gradientUnits="userSpaceOnUse">
<stop stop-color="#ACBDDE" stop-opacity="0"/>
<stop offset="1" stop-color="#2E405C"/>
</linearGradient>
<linearGradient id="paint47_linear_120_147" x1="384.492" y1="191.631" x2="379.561" y2="185.693" gradientUnits="userSpaceOnUse">
<stop stop-color="#ACBDDE" stop-opacity="0"/>
<stop offset="1" stop-color="#2E405C"/>
</linearGradient>
<linearGradient id="paint48_linear_120_147" x1="400.573" y1="179.867" x2="369.844" y2="179.867" gradientUnits="userSpaceOnUse">
<stop stop-color="#ACBDDE"/>
<stop offset="1" stop-color="#2E405C"/>
</linearGradient>
<linearGradient id="paint49_linear_120_147" x1="390.231" y1="178.224" x2="390.231" y2="186.922" gradientUnits="userSpaceOnUse">
<stop stop-color="#FFEFA4"/>
<stop offset="1" stop-color="#FE8F01"/>
</linearGradient>
<linearGradient id="paint50_linear_120_147" x1="377.243" y1="205.852" x2="377.243" y2="185.112" gradientUnits="userSpaceOnUse">
<stop stop-color="#2E405C"/>
<stop offset="1" stop-color="#526381"/>
</linearGradient>
<linearGradient id="paint51_linear_120_147" x1="444.536" y1="464.577" x2="413.485" y2="432.059" gradientUnits="userSpaceOnUse">
<stop stop-color="white"/>
<stop offset="1" stop-color="#AEBDDF"/>
</linearGradient>
<linearGradient id="paint52_linear_120_147" x1="356.38" y1="397.241" x2="468.688" y2="393.699" gradientUnits="userSpaceOnUse">
<stop stop-color="white"/>
<stop offset="1" stop-color="#AEBDDF"/>
</linearGradient>
<linearGradient id="paint53_linear_120_147" x1="423.733" y1="358.158" x2="344.551" y2="358.158" gradientUnits="userSpaceOnUse">
<stop stop-color="#ACBDDE"/>
<stop offset="1" stop-color="#2E405C"/>
</linearGradient>
<linearGradient id="paint54_linear_120_147" x1="397.082" y1="326.973" x2="397.082" y2="366.231" gradientUnits="userSpaceOnUse">
<stop stop-color="#ACBDDE"/>
<stop offset="1" stop-color="#2E405C"/>
</linearGradient>
<linearGradient id="paint55_linear_120_147" x1="485.448" y1="385.489" x2="393.607" y2="294.906" gradientUnits="userSpaceOnUse">
<stop stop-color="#79D985"/>
<stop offset="1" stop-color="#027A71"/>
</linearGradient>
<linearGradient id="paint56_linear_120_147" x1="336.188" y1="299.847" x2="353.173" y2="351.429" gradientUnits="userSpaceOnUse">
<stop stop-color="#79D985"/>
<stop offset="1" stop-color="#027A71"/>
</linearGradient>
<linearGradient id="paint57_linear_120_147" x1="443.577" y1="174.56" x2="436.028" y2="249.207" gradientUnits="userSpaceOnUse">
<stop stop-color="#79D985"/>
<stop offset="1" stop-color="#027A71"/>
</linearGradient>
<linearGradient id="paint58_linear_120_147" x1="512.075" y1="110.476" x2="397.073" y2="321.757" gradientUnits="userSpaceOnUse">
<stop stop-color="#79D985"/>
<stop offset="1" stop-color="#027A71"/>
</linearGradient>
<linearGradient id="paint59_linear_120_147" x1="434.57" y1="227.893" x2="292.824" y2="336.509" gradientUnits="userSpaceOnUse">
<stop stop-color="#79D985"/>
<stop offset="1" stop-color="#027A71"/>
</linearGradient>
<linearGradient id="paint60_linear_120_147" x1="315.789" y1="296.522" x2="357.166" y2="226.907" gradientUnits="userSpaceOnUse">
<stop stop-color="#79D985"/>
<stop offset="1" stop-color="#027A71"/>
</linearGradient>
<linearGradient id="paint61_linear_120_147" x1="178.306" y1="417.207" x2="168.403" y2="374.522" gradientUnits="userSpaceOnUse">
<stop stop-color="white"/>
<stop offset="1" stop-color="#AEBDDF"/>
</linearGradient>
<linearGradient id="paint62_linear_120_147" x1="405.336" y1="308.079" x2="119.798" y2="308.079" gradientUnits="userSpaceOnUse">
<stop stop-color="#ACBDDE"/>
<stop offset="1" stop-color="#2E405C"/>
</linearGradient>
<linearGradient id="paint63_linear_120_147" x1="174.47" y1="392.816" x2="177.202" y2="419.452" gradientUnits="userSpaceOnUse">
<stop stop-color="white"/>
<stop offset="1" stop-color="#AEBDDF"/>
</linearGradient>
<linearGradient id="paint64_linear_120_147" x1="239.994" y1="72.2309" x2="126.792" y2="135.747" gradientUnits="userSpaceOnUse">
<stop stop-color="#FFEFA4"/>
<stop offset="1" stop-color="#FE8F01"/>
</linearGradient>
<linearGradient id="paint65_linear_120_147" x1="255.801" y1="120.843" x2="200.139" y2="155.845" gradientUnits="userSpaceOnUse">
<stop stop-color="#FFD2BB"/>
<stop offset="1" stop-color="#FF6B5A"/>
</linearGradient>
<linearGradient id="paint66_linear_120_147" x1="256.244" y1="101.192" x2="143.043" y2="164.708" gradientUnits="userSpaceOnUse">
<stop stop-color="#FFEFA4"/>
<stop offset="1" stop-color="#FE8F01"/>
</linearGradient>
<linearGradient id="paint67_linear_120_147" x1="123.403" y1="36.7606" x2="99.3083" y2="147.357" gradientUnits="userSpaceOnUse">
<stop stop-color="#FFD2BB"/>
<stop offset="1" stop-color="#FF6B5A"/>
</linearGradient>
<linearGradient id="paint68_linear_120_147" x1="110.974" y1="-5.01197" x2="110.974" y2="106.251" gradientUnits="userSpaceOnUse">
<stop stop-color="#ACBDDE"/>
<stop offset="1" stop-color="#2E405C"/>
</linearGradient>
<linearGradient id="paint69_linear_120_147" x1="270.147" y1="434.491" x2="66.9692" y2="434.491" gradientUnits="userSpaceOnUse">
<stop stop-color="white"/>
<stop offset="1" stop-color="#AEBDDF"/>
</linearGradient>
<linearGradient id="paint70_linear_120_147" x1="70.3261" y1="438.601" x2="405.725" y2="438.601" gradientUnits="userSpaceOnUse">
<stop stop-color="white"/>
<stop offset="1" stop-color="#AEBDDF"/>
</linearGradient>
<linearGradient id="paint71_linear_120_147" x1="116.937" y1="390.412" x2="116.937" y2="490.828" gradientUnits="userSpaceOnUse">
<stop stop-color="white"/>
<stop offset="1" stop-color="#AEBDDF"/>
</linearGradient>
<linearGradient id="paint72_linear_120_147" x1="116.937" y1="290.731" x2="116.937" y2="458.311" gradientUnits="userSpaceOnUse">
<stop stop-color="white"/>
<stop offset="1" stop-color="#AEBDDF"/>
</linearGradient>
<linearGradient id="paint73_linear_120_147" x1="123.519" y1="214.703" x2="132.184" y2="292.683" gradientUnits="userSpaceOnUse">
<stop stop-color="white"/>
<stop offset="1" stop-color="#AEBDDF"/>
</linearGradient>
<linearGradient id="paint74_linear_120_147" x1="308.681" y1="422.64" x2="231.503" y2="422.64" gradientUnits="userSpaceOnUse">
<stop stop-color="white"/>
<stop offset="1" stop-color="#AEBDDF"/>
</linearGradient>
<linearGradient id="paint75_linear_120_147" x1="405.337" y1="256.438" x2="119.798" y2="256.438" gradientUnits="userSpaceOnUse">
<stop stop-color="#ACBDDE"/>
<stop offset="1" stop-color="#2E405C"/>
</linearGradient>
<linearGradient id="paint76_linear_120_147" x1="249.692" y1="432.18" x2="251.58" y2="401.05" gradientUnits="userSpaceOnUse">
<stop stop-color="white"/>
<stop offset="1" stop-color="#AEBDDF"/>
</linearGradient>
<linearGradient id="paint77_linear_120_147" x1="249.403" y1="392.253" x2="250.345" y2="423.556" gradientUnits="userSpaceOnUse">
<stop stop-color="white"/>
<stop offset="1" stop-color="#AEBDDF"/>
</linearGradient>
<linearGradient id="paint78_linear_120_147" x1="351.191" y1="317.835" x2="90.1877" y2="317.835" gradientUnits="userSpaceOnUse">
<stop stop-color="#ACBDDE"/>
<stop offset="1" stop-color="#2E405C"/>
</linearGradient>
<linearGradient id="paint79_linear_120_147" x1="103.451" y1="149.708" x2="103.451" y2="79.5295" gradientUnits="userSpaceOnUse">
<stop stop-color="#ACBDDE"/>
<stop offset="1" stop-color="#2E405C"/>
</linearGradient>
<linearGradient id="paint80_linear_120_147" x1="100.89" y1="267.99" x2="100.89" y2="16.7434" gradientUnits="userSpaceOnUse">
<stop stop-color="#FFEFA4"/>
<stop offset="1" stop-color="#FE8F01"/>
</linearGradient>
<linearGradient id="paint81_linear_120_147" x1="67.4938" y1="171.947" x2="67.4938" y2="293.036" gradientUnits="userSpaceOnUse">
<stop stop-color="white"/>
<stop offset="1" stop-color="#AEBDDF"/>
</linearGradient>
<linearGradient id="paint82_linear_120_147" x1="133.918" y1="241.926" x2="133.918" y2="414.704" gradientUnits="userSpaceOnUse">
<stop stop-color="white"/>
<stop offset="1" stop-color="#AEBDDF"/>
</linearGradient>
<linearGradient id="paint83_linear_120_147" x1="275.672" y1="157.552" x2="263.805" y2="164.624" gradientUnits="userSpaceOnUse">
<stop stop-color="#FFD2BB"/>
<stop offset="1" stop-color="#FF6B5A"/>
</linearGradient>
<linearGradient id="paint84_linear_120_147" x1="280.411" y1="149.375" x2="242.894" y2="169.698" gradientUnits="userSpaceOnUse">
<stop stop-color="#FFD2BB"/>
<stop offset="1" stop-color="#FF6B5A"/>
</linearGradient>
<linearGradient id="paint85_linear_120_147" x1="212.31" y1="267.99" x2="212.31" y2="16.7434" gradientUnits="userSpaceOnUse">
<stop stop-color="#FFEFA4"/>
<stop offset="1" stop-color="#FE8F01"/>
</linearGradient>
<linearGradient id="paint86_linear_120_147" x1="158.938" y1="267.99" x2="158.938" y2="16.7434" gradientUnits="userSpaceOnUse">
<stop stop-color="#FFEFA4"/>
<stop offset="1" stop-color="#FE8F01"/>
</linearGradient>
</defs>
</svg>
